<svg xmlns="http://www.w3.org/2000/svg" xmlns:xlink="http://www.w3.org/1999/xlink" width="72" height="72" preserveAspectRatio="xMidYMid meet" viewBox="0 0 72 72" style="-ms-transform: rotate(360deg); -webkit-transform: rotate(360deg); transform: rotate(360deg);">
  <path fill="#f1b31c" d="M5 17h62v38H5z" />
  <path fill="#d22f27" d="M23 33v7a2.006 2.006 0 0 1-2 2h-4a2.006 2.006 0 0 1-2-2v-7" />
  <path fill="#d22f27" d="M5 17h62v9H5z" />
  <path fill="#d22f27" d="M5 46h62v9H5z" />
  <path fill="#f1b31c" d="M19 33h4v4h-4z" />
  <circle cx="19" cy="37" r="1.5" fill="#6a462f" />
  <g fill="none" stroke="#6a462f" stroke-linecap="round" stroke-linejoin="round" stroke-width="2">
    <path d="M27 33v9" />
    <path d="M11 33v9" />
    <path d="M15 30a8.568 8.568 0 0 1 4-1" />
    <path d="M23 30a8.568 8.568 0 0 0-4-1" />
    <path d="M15 33h8" />
    <path d="M23 33v7a2.006 2.006 0 0 1-2 2h-4a2.006 2.006 0 0 1-2-2v-7" />
    <path d="M10 42h2" />
    <path d="M26 42h2" />
  </g>
  <g>
    <path fill="none" stroke="#000" stroke-linecap="round" stroke-linejoin="round" stroke-width="2" d="M5 17h62v38H5z" />
  </g>
</svg>