<svg width="87" height="86" viewBox="0 0 87 86" fill="none" xmlns="http://www.w3.org/2000/svg">
<path fill-rule="evenodd" clip-rule="evenodd" d="M14.5014 85.9331H71.8278C79.8429 85.2522 86.1894 78.486 86.1894 70.305V15.628C86.1894 7.45061 79.8429 0.680808 71.8348 -5.29678e-05H14.4944C6.48631 0.680808 0.139893 7.45061 0.139893 15.628V70.305C0.139893 78.486 6.48981 85.2522 14.5014 85.9331Z" fill="#319342"/>
<path fill-rule="evenodd" clip-rule="evenodd" d="M0.139893 43.0636L43.1682 75.498L86.1894 43.0813V42.8485L43.1682 10.4317L0.139893 42.8661V43.0636" fill="#EFC906"/>
<path fill-rule="evenodd" clip-rule="evenodd" d="M64.6418 42.9648C64.6418 54.8252 55.0286 64.4419 43.1646 64.4419C31.3078 64.4419 21.6981 54.8252 21.6981 42.9648C21.6981 31.1079 31.3078 21.4771 43.1646 21.4771C55.0286 21.4736 64.6418 31.1079 64.6418 42.9648Z" fill="#33306F"/>
<path fill-rule="evenodd" clip-rule="evenodd" d="M30.8986 33.7538C28.3762 33.7538 25.9139 33.9408 23.5079 34.2759C23.0458 35.3272 22.6683 36.4243 22.3684 37.5567C25.1377 37.084 27.9811 36.8265 30.895 36.8265C43.4821 36.8229 54.9863 41.5749 63.6717 49.3818C64.0244 48.2812 64.282 47.1417 64.4337 45.9811C55.3638 38.3505 43.6692 33.7538 30.8986 33.7538" fill="#FEFEFE"/>
<path fill-rule="evenodd" clip-rule="evenodd" d="M24.8448 36.6783C24.3403 36.7453 23.8783 36.3397 23.8183 35.7823C23.7301 35.2249 24.0793 34.7098 24.5979 34.6569C25.1023 34.5899 25.5645 34.9991 25.6245 35.5565C25.7056 36.1174 25.3458 36.6183 24.8448 36.6783ZM24.8061 36.3044C25.0848 36.2656 25.2894 35.9516 25.2577 35.5988C25.2153 35.2425 24.9507 34.992 24.6367 35.0308C24.3404 35.0626 24.1322 35.3766 24.1745 35.7329C24.231 36.0856 24.5027 36.3396 24.8061 36.3079V36.3044" fill="#319342"/>
<path fill-rule="evenodd" clip-rule="evenodd" d="M26.5171 36.502L26.39 34.4523L27.5684 34.3782C27.9176 34.35 28.2245 34.6146 28.2597 34.9674C28.2668 35.3237 27.9987 35.6341 27.667 35.6623L26.831 35.7118L26.8839 36.4702L26.5171 36.502ZM26.8099 35.3343L27.5965 35.2884C27.7411 35.2708 27.8364 35.1438 27.8364 34.9991C27.8188 34.8474 27.7095 34.7451 27.5684 34.7593L26.7781 34.8016L26.8099 35.3343" fill="#319342"/>
<path fill-rule="evenodd" clip-rule="evenodd" d="M28.242 36.382C28.2244 36.0857 28.1892 35.4507 27.7411 35.4718L27.1837 35.5107C27.8187 35.4719 27.8716 36.1174 27.9069 36.3997L28.242 36.382" fill="#319342"/>
<path fill-rule="evenodd" clip-rule="evenodd" d="M29.117 36.3396L29.0781 34.2899L30.0306 34.2688C30.5104 34.2617 30.9161 34.6569 30.9232 35.1296L30.9408 35.4259C30.9408 35.9163 30.5634 36.3149 30.0695 36.322L29.117 36.3396ZM29.4768 35.948L30.0306 35.9374C30.3411 35.9339 30.588 35.6764 30.5704 35.3765L30.574 35.1931C30.574 34.9003 30.3199 34.6568 30.0236 34.6568L29.4592 34.671L29.4768 35.948" fill="#319342"/>
<path fill-rule="evenodd" clip-rule="evenodd" d="M31.6887 36.3149L33.5408 36.382L33.5584 35.9939L32.0733 35.941L32.091 35.4224L33.2622 35.4541V35.1084L32.1086 35.0626V34.6604L33.5232 34.7098V34.3217L31.7699 34.2618L31.6887 36.3149" fill="#319342"/>
<path fill-rule="evenodd" clip-rule="evenodd" d="M34.3029 36.4207L34.6556 36.4525L34.7721 35.0555L35.0507 36.4878L35.3824 36.5195L35.9044 35.1542L35.7845 36.5513L36.1303 36.583L36.3101 34.5439L35.8092 34.4981L35.2694 35.8598L34.9872 34.424L34.4757 34.3852L34.3029 36.4207" fill="#319342"/>
<path fill-rule="evenodd" clip-rule="evenodd" d="M38.5256 36.897L40.0638 37.151L40.1061 36.8123L38.9455 36.6148L39.0266 36.1562L39.9862 36.322L40.0285 35.9657L39.0901 35.8104L39.136 35.4859L40.2684 35.6834L40.3107 35.3342L38.8537 35.0802L38.5256 36.897" fill="#319342"/>
<path fill-rule="evenodd" clip-rule="evenodd" d="M42.4203 37.6626L42.9671 35.6835L44.0994 35.9798C44.4346 36.0751 44.6392 36.4208 44.558 36.77C44.4663 37.1122 44.1171 37.3168 43.7643 37.2251L42.9847 37.0276L42.7765 37.7614L42.4203 37.6626ZM43.0906 36.6501L43.8419 36.8512C43.99 36.89 44.1171 36.8018 44.1523 36.6642C44.1947 36.5196 44.0995 36.382 43.9725 36.3397L43.2069 36.1456L43.0906 36.6501" fill="#319342"/>
<path fill-rule="evenodd" clip-rule="evenodd" d="M44.9285 38.3294L45.567 36.3891L46.6959 36.7454C47.0311 36.8512 47.218 37.211 47.1087 37.5497C46.9958 37.8849 46.6465 38.0718 46.2937 37.9625L45.5318 37.7226L45.2989 38.4387L44.9285 38.3294ZM45.6446 37.3557L46.3961 37.5956C46.516 37.6344 46.6783 37.5673 46.7242 37.4227C46.7736 37.2816 46.6959 37.1405 46.5512 37.0982L45.807 36.8547L45.6446 37.3557" fill="#319342"/>
<path fill-rule="evenodd" clip-rule="evenodd" d="M46.5866 38.8514C46.6818 38.5727 46.8688 37.966 46.4561 37.8354L45.934 37.6626C46.5372 37.8601 46.3468 38.4669 46.248 38.7527L46.5866 38.8514Z" fill="#319342"/>
<path fill-rule="evenodd" clip-rule="evenodd" d="M48.2659 39.4582C47.7967 39.2748 47.5532 38.7033 47.7614 38.1671C47.9484 37.645 48.5057 37.3557 48.9855 37.5391C49.4688 37.7155 49.6876 38.2905 49.483 38.8232C49.2889 39.3489 48.7492 39.6276 48.2659 39.4582V39.4582ZM48.3964 39.0984C48.6857 39.2113 48.9997 39.0137 49.1302 38.6857C49.2607 38.3505 49.1302 38.0013 48.8586 37.8919C48.5764 37.7931 48.2376 37.9766 48.1106 38.3082C47.9836 38.6363 48.1283 38.9926 48.3964 39.0984" fill="#319342"/>
<path fill-rule="evenodd" clip-rule="evenodd" d="M50.6717 40.4283C50.2131 40.2308 50.0261 39.6416 50.2448 39.1266C50.4671 38.5974 51.0245 38.3504 51.4901 38.5551C51.9593 38.7597 52.1499 39.3347 51.9347 39.8639C51.7089 40.3719 51.1409 40.6259 50.6717 40.4283V40.4283ZM50.8305 40.0755C51.1056 40.2096 51.4373 40.0332 51.5749 39.7051C51.7195 39.377 51.6101 39.0137 51.342 38.8973C51.0704 38.7773 50.7353 38.9466 50.5941 39.2747C50.4495 39.5993 50.5482 39.9626 50.8269 40.0791L50.8305 40.0755Z" fill="#319342"/>
<path fill-rule="evenodd" clip-rule="evenodd" d="M51.215 39.5429L51.9347 39.8604L51.7971 40.125L51.1057 39.811L51.215 39.5429Z" fill="#319342"/>
<path fill-rule="evenodd" clip-rule="evenodd" d="M51.6596 39.7334L51.9348 39.8604L51.5114 40.7917L51.2679 40.6718L51.6596 39.7334Z" fill="#319342"/>
<path fill-rule="evenodd" clip-rule="evenodd" d="M52.2203 41.1163L53.1552 39.2995L54.1889 39.8216C54.5064 39.9768 54.6334 40.3614 54.4711 40.6824C54.3194 40.9964 53.9313 41.1304 53.6138 40.9717L52.8872 40.5977L52.552 41.2821L52.2203 41.1163ZM53.0565 40.2661L53.7621 40.6118C53.8891 40.6824 54.0443 40.6295 54.1113 40.4989C54.1713 40.3719 54.1289 40.2132 54.0019 40.1497L53.2823 39.7969L53.0565 40.2661" fill="#319342"/>
<path fill-rule="evenodd" clip-rule="evenodd" d="M53.7622 41.8889C53.8892 41.6314 54.1714 41.0564 53.7868 40.8588L53.2823 40.6048C53.8715 40.8976 53.5787 41.4762 53.4623 41.7266L53.7622 41.8889" fill="#319342"/>
<path fill-rule="evenodd" clip-rule="evenodd" d="M54.524 42.291L56.1362 43.1976L56.3056 42.866L55.0215 42.1358L55.2685 41.6772L56.2879 42.2522L56.4609 41.9382L55.4519 41.3702L55.6565 41.0069L56.863 41.7054L57.0711 41.3702L55.5295 40.5059L54.524 42.291" fill="#319342"/>
<path fill-rule="evenodd" clip-rule="evenodd" d="M57.5192 43.293C57.4028 43.4588 57.5157 43.6599 57.7555 43.8186C58.0025 43.9703 58.1647 43.9632 58.2458 43.8609C58.4646 43.5011 57.1805 42.9861 57.5721 42.3828C57.9073 41.8536 58.4999 42.2593 58.7257 42.404C58.9479 42.5451 59.3007 42.912 59.022 43.3353L58.6445 43.0884C58.775 42.912 58.6446 42.7285 58.4364 42.6192C58.2459 42.4781 58.0907 42.4251 57.9778 42.6192C57.7803 42.8943 59.0573 43.427 58.6551 44.0444C58.3905 44.4924 57.8861 44.2913 57.5545 44.0832C57.2582 43.8998 56.8454 43.4764 57.1135 43.0495L57.5192 43.293" fill="#319342"/>
<path fill-rule="evenodd" clip-rule="evenodd" d="M59.7099 44.7429C59.5793 44.9051 59.6782 45.1098 59.9181 45.2791C60.1544 45.4484 60.3343 45.459 60.4154 45.3496C60.6482 45.011 59.3748 44.4289 59.8193 43.8397C60.1897 43.3282 60.7647 43.7692 60.9728 43.9138C61.1951 44.0761 61.5125 44.4571 61.2092 44.8628L60.8564 44.6018C60.9728 44.4254 60.8565 44.2454 60.6589 44.1043C60.4719 43.9703 60.3449 43.9103 60.2179 44.0832C60.0098 44.3583 61.2338 44.9686 60.8281 45.5507C60.5071 45.9882 60.0097 45.7659 59.7099 45.5366C59.4276 45.3391 59.022 44.891 59.3254 44.4747L59.7099 44.7429Z" fill="#319342"/>
<path fill-rule="evenodd" clip-rule="evenodd" d="M61.7772 47.0994C61.3821 46.7854 61.3504 46.168 61.6996 45.7271C62.0524 45.2826 62.652 45.1767 63.0506 45.5013C63.4458 45.8153 63.4846 46.4291 63.1318 46.8736C62.779 47.3146 62.1794 47.4134 61.7772 47.0994V47.0994ZM62.0171 46.796C62.257 46.9936 62.6274 46.9159 62.8461 46.6337C63.0684 46.355 63.033 45.9811 62.8143 45.7976C62.5744 45.6036 62.2217 45.6777 61.9995 45.9599C61.7561 46.2386 61.7736 46.6196 62.0135 46.796H62.0171Z" fill="#319342"/>
<path fill-rule="evenodd" clip-rule="evenodd" d="M25.6245 38.1847L25.3458 39.0596L25.7868 39.2042L25.6245 38.1847Z" fill="#FEFEFE"/>
<path fill-rule="evenodd" clip-rule="evenodd" d="M25.6246 38.1847L25.9138 39.0596L25.4799 39.2042L25.6246 38.1847Z" fill="#FEFEFE"/>
<path fill-rule="evenodd" clip-rule="evenodd" d="M26.4995 38.8232H25.5823V39.2712L26.4995 38.8232Z" fill="#FEFEFE"/>
<path fill-rule="evenodd" clip-rule="evenodd" d="M26.4995 38.8231L25.7692 39.3558L25.4799 38.9889L26.4995 38.8231Z" fill="#FEFEFE"/>
<path fill-rule="evenodd" clip-rule="evenodd" d="M24.7532 38.8231L25.4975 39.3558L25.7692 38.9889L24.7532 38.8231Z" fill="#FEFEFE"/>
<path fill-rule="evenodd" clip-rule="evenodd" d="M24.7532 38.8232H25.681V39.2712L24.7532 38.8232Z" fill="#FEFEFE"/>
<path fill-rule="evenodd" clip-rule="evenodd" d="M26.1643 39.8497L25.8856 38.9713L25.4552 39.1195L26.1643 39.8497Z" fill="#FEFEFE"/>
<path fill-rule="evenodd" clip-rule="evenodd" d="M26.1643 39.8497L25.4199 39.3064L25.6951 38.929L26.1643 39.8497Z" fill="#FEFEFE"/>
<path fill-rule="evenodd" clip-rule="evenodd" d="M25.0847 39.8497L25.8326 39.3064L25.5645 38.929L25.0847 39.8497Z" fill="#FEFEFE"/>
<path fill-rule="evenodd" clip-rule="evenodd" d="M25.0847 39.8497L25.374 38.9713L25.8221 39.1195L25.0847 39.8497Z" fill="#FEFEFE"/>
<path fill-rule="evenodd" clip-rule="evenodd" d="M27.5402 47.2123L27.2438 48.0872L27.6954 48.2283L27.5402 47.2123Z" fill="#FEFEFE"/>
<path fill-rule="evenodd" clip-rule="evenodd" d="M27.5401 47.2123L27.8117 48.0872L27.3813 48.2283L27.5401 47.2123Z" fill="#FEFEFE"/>
<path fill-rule="evenodd" clip-rule="evenodd" d="M28.3938 47.8508H27.4872V48.313L28.3938 47.8508Z" fill="#FEFEFE"/>
<path fill-rule="evenodd" clip-rule="evenodd" d="M28.3938 47.8508L27.667 48.394L27.392 48.013L28.3938 47.8508Z" fill="#FEFEFE"/>
<path fill-rule="evenodd" clip-rule="evenodd" d="M26.6616 47.8508L27.392 48.394L27.6847 48.013L26.6616 47.8508Z" fill="#FEFEFE"/>
<path fill-rule="evenodd" clip-rule="evenodd" d="M26.6616 47.8508H27.5895V48.313L26.6616 47.8508Z" fill="#FEFEFE"/>
<path fill-rule="evenodd" clip-rule="evenodd" d="M28.08 48.881L27.7942 48.0096L27.3496 48.1507L28.08 48.881Z" fill="#FEFEFE"/>
<path fill-rule="evenodd" clip-rule="evenodd" d="M28.0799 48.881L27.3319 48.3306L27.5965 47.9708L28.0799 48.881Z" fill="#FEFEFE"/>
<path fill-rule="evenodd" clip-rule="evenodd" d="M26.9827 48.881L27.7411 48.3306L27.4589 47.9708L26.9827 48.881Z" fill="#FEFEFE"/>
<path fill-rule="evenodd" clip-rule="evenodd" d="M26.9827 48.881L27.2649 48.0096L27.7094 48.1507L26.9827 48.881Z" fill="#FEFEFE"/>
<path fill-rule="evenodd" clip-rule="evenodd" d="M24.8978 49.4418L24.725 50.0345L25.0072 50.1298L24.8978 49.4418Z" fill="#FEFEFE"/>
<path fill-rule="evenodd" clip-rule="evenodd" d="M24.8978 49.4418L25.0848 50.0345L24.8062 50.1298L24.8978 49.4418Z" fill="#FEFEFE"/>
<path fill-rule="evenodd" clip-rule="evenodd" d="M25.4798 49.8722H24.8624V50.1826L25.4798 49.8722Z" fill="#FEFEFE"/>
<path fill-rule="evenodd" clip-rule="evenodd" d="M25.4798 49.8722L24.9895 50.2391L24.8096 49.9887L25.4798 49.8722Z" fill="#FEFEFE"/>
<path fill-rule="evenodd" clip-rule="evenodd" d="M24.3229 49.8722L24.8096 50.2391L24.9896 49.9887L24.3229 49.8722Z" fill="#FEFEFE"/>
<path fill-rule="evenodd" clip-rule="evenodd" d="M24.3229 49.8722H24.9296V50.1826L24.3229 49.8722Z" fill="#FEFEFE"/>
<path fill-rule="evenodd" clip-rule="evenodd" d="M25.2577 50.5602L25.0671 49.9746L24.7885 50.0734L25.2577 50.5602Z" fill="#FEFEFE"/>
<path fill-rule="evenodd" clip-rule="evenodd" d="M25.2577 50.5602L24.7709 50.1968L24.9507 49.9428L25.2577 50.5602Z" fill="#FEFEFE"/>
<path fill-rule="evenodd" clip-rule="evenodd" d="M24.5449 50.5602L25.0354 50.1968L24.8624 49.9428L24.5449 50.5602Z" fill="#FEFEFE"/>
<path fill-rule="evenodd" clip-rule="evenodd" d="M24.5449 50.5602L24.7249 49.9746L25.0071 50.0734L24.5449 50.5602Z" fill="#FEFEFE"/>
<path fill-rule="evenodd" clip-rule="evenodd" d="M29.6391 46.3797L29.491 46.789L29.6991 46.8666L29.6391 46.3797Z" fill="#FEFEFE"/>
<path fill-rule="evenodd" clip-rule="evenodd" d="M29.6391 46.3797L29.766 46.789L29.5615 46.8666L29.6391 46.3797Z" fill="#FEFEFE"/>
<path fill-rule="evenodd" clip-rule="evenodd" d="M30.0483 46.6867H29.6179V46.9019L30.0483 46.6867Z" fill="#FEFEFE"/>
<path fill-rule="evenodd" clip-rule="evenodd" d="M30.0484 46.6867L29.6992 46.9442L29.5757 46.7678L30.0484 46.6867Z" fill="#FEFEFE"/>
<path fill-rule="evenodd" clip-rule="evenodd" d="M29.2052 46.6867L29.5756 46.9442L29.6991 46.7678L29.2052 46.6867Z" fill="#FEFEFE"/>
<path fill-rule="evenodd" clip-rule="evenodd" d="M29.2052 46.6867H29.6568V46.9019L29.2052 46.6867Z" fill="#FEFEFE"/>
<path fill-rule="evenodd" clip-rule="evenodd" d="M29.8967 47.1805L29.7484 46.7537L29.5615 46.8242L29.8967 47.1805Z" fill="#FEFEFE"/>
<path fill-rule="evenodd" clip-rule="evenodd" d="M29.8967 47.1805L29.5439 46.916L29.6709 46.736L29.8967 47.1805Z" fill="#FEFEFE"/>
<path fill-rule="evenodd" clip-rule="evenodd" d="M29.3781 47.1805L29.7344 46.916L29.6039 46.736L29.3781 47.1805Z" fill="#FEFEFE"/>
<path fill-rule="evenodd" clip-rule="evenodd" d="M29.3781 47.1805L29.5087 46.7537L29.7168 46.8242L29.3781 47.1805Z" fill="#FEFEFE"/>
<path fill-rule="evenodd" clip-rule="evenodd" d="M32.0134 49.4983L31.7699 50.2321L32.1192 50.3556L32.0134 49.4983Z" fill="#FEFEFE"/>
<path fill-rule="evenodd" clip-rule="evenodd" d="M32.0133 49.4983L32.2355 50.2321L31.8827 50.3556L32.0133 49.4983Z" fill="#FEFEFE"/>
<path fill-rule="evenodd" clip-rule="evenodd" d="M32.7224 50.0345H31.9604V50.412L32.7224 50.0345Z" fill="#FEFEFE"/>
<path fill-rule="evenodd" clip-rule="evenodd" d="M32.7223 50.0345L32.1086 50.4861L31.8827 50.1686L32.7223 50.0345Z" fill="#FEFEFE"/>
<path fill-rule="evenodd" clip-rule="evenodd" d="M31.2726 50.0345L31.8934 50.4861L32.1192 50.1686L31.2726 50.0345Z" fill="#FEFEFE"/>
<path fill-rule="evenodd" clip-rule="evenodd" d="M31.2726 50.0345H32.0381V50.412L31.2726 50.0345Z" fill="#FEFEFE"/>
<path fill-rule="evenodd" clip-rule="evenodd" d="M32.4614 50.8777L32.2179 50.158L31.8511 50.2815L32.4614 50.8777Z" fill="#FEFEFE"/>
<path fill-rule="evenodd" clip-rule="evenodd" d="M32.4614 50.8777L31.8298 50.4332L32.0557 50.1298L32.4614 50.8777Z" fill="#FEFEFE"/>
<path fill-rule="evenodd" clip-rule="evenodd" d="M31.5688 50.8777L32.165 50.4332L31.9428 50.1298L31.5688 50.8777Z" fill="#FEFEFE"/>
<path fill-rule="evenodd" clip-rule="evenodd" d="M31.5688 50.8777L31.7875 50.158L32.1509 50.2815L31.5688 50.8777Z" fill="#FEFEFE"/>
<path fill-rule="evenodd" clip-rule="evenodd" d="M31.3642 51.6326L31.1208 52.3664L31.4807 52.4899L31.3642 51.6326Z" fill="#FEFEFE"/>
<path fill-rule="evenodd" clip-rule="evenodd" d="M31.3642 51.6326L31.59 52.3664L31.2301 52.4899L31.3642 51.6326Z" fill="#FEFEFE"/>
<path fill-rule="evenodd" clip-rule="evenodd" d="M32.0909 52.1688H31.3289V52.5427L32.0909 52.1688Z" fill="#FEFEFE"/>
<path fill-rule="evenodd" clip-rule="evenodd" d="M32.091 52.1688L31.463 52.6204L31.2407 52.3099L32.091 52.1688Z" fill="#FEFEFE"/>
<path fill-rule="evenodd" clip-rule="evenodd" d="M30.641 52.1688L31.2584 52.6204L31.4806 52.3099L30.641 52.1688Z" fill="#FEFEFE"/>
<path fill-rule="evenodd" clip-rule="evenodd" d="M30.641 52.1688H31.403V52.5427L30.641 52.1688Z" fill="#FEFEFE"/>
<path fill-rule="evenodd" clip-rule="evenodd" d="M31.8052 53.0261L31.5829 52.2923L31.2125 52.4123L31.8052 53.0261Z" fill="#FEFEFE"/>
<path fill-rule="evenodd" clip-rule="evenodd" d="M31.8052 53.0261L31.1808 52.564L31.4171 52.2641L31.8052 53.0261Z" fill="#FEFEFE"/>
<path fill-rule="evenodd" clip-rule="evenodd" d="M30.9161 53.0261L31.5335 52.564L31.3078 52.2641L30.9161 53.0261Z" fill="#FEFEFE"/>
<path fill-rule="evenodd" clip-rule="evenodd" d="M30.9161 53.0261L31.149 52.2923L31.5159 52.4123L30.9161 53.0261Z" fill="#FEFEFE"/>
<path fill-rule="evenodd" clip-rule="evenodd" d="M49.8287 35.3766L49.5428 36.255L49.9908 36.3926L49.8287 35.3766Z" fill="#FEFEFE"/>
<path fill-rule="evenodd" clip-rule="evenodd" d="M49.8286 35.3766L50.1179 36.255L49.6733 36.3926L49.8286 35.3766Z" fill="#FEFEFE"/>
<path fill-rule="evenodd" clip-rule="evenodd" d="M50.7 36.0115H49.7863V36.4807L50.7 36.0115Z" fill="#FEFEFE"/>
<path fill-rule="evenodd" clip-rule="evenodd" d="M50.6999 36.0115L49.9555 36.5583L49.6875 36.1809L50.6999 36.0115Z" fill="#FEFEFE"/>
<path fill-rule="evenodd" clip-rule="evenodd" d="M48.9502 36.0115L49.7052 36.5583L49.9733 36.1809L48.9502 36.0115Z" fill="#FEFEFE"/>
<path fill-rule="evenodd" clip-rule="evenodd" d="M48.9502 36.0115H49.8744V36.4807L48.9502 36.0115Z" fill="#FEFEFE"/>
<path fill-rule="evenodd" clip-rule="evenodd" d="M50.3755 37.0487L50.0827 36.1703L49.6558 36.3149L50.3755 37.0487Z" fill="#FEFEFE"/>
<path fill-rule="evenodd" clip-rule="evenodd" d="M50.3755 37.0487L49.6205 36.5019L49.8957 36.1244L50.3755 37.0487Z" fill="#FEFEFE"/>
<path fill-rule="evenodd" clip-rule="evenodd" d="M49.2889 37.0487L50.0332 36.5019L49.7652 36.1244L49.2889 37.0487Z" fill="#FEFEFE"/>
<path fill-rule="evenodd" clip-rule="evenodd" d="M49.2889 37.0487L49.5782 36.1703L50.0262 36.3149L49.2889 37.0487Z" fill="#FEFEFE"/>
<path fill-rule="evenodd" clip-rule="evenodd" d="M58.2106 49.5829L57.9249 50.4613L58.3729 50.606L58.2106 49.5829Z" fill="#FEFEFE"/>
<path fill-rule="evenodd" clip-rule="evenodd" d="M58.2105 49.5829L58.4998 50.4613L58.073 50.606L58.2105 49.5829Z" fill="#FEFEFE"/>
<path fill-rule="evenodd" clip-rule="evenodd" d="M59.0926 50.2214H58.1683V50.673L59.0926 50.2214Z" fill="#FEFEFE"/>
<path fill-rule="evenodd" clip-rule="evenodd" d="M59.0925 50.2215L58.3587 50.7612L58.073 50.3838L59.0925 50.2215Z" fill="#FEFEFE"/>
<path fill-rule="evenodd" clip-rule="evenodd" d="M57.3392 50.2215L58.0941 50.7612L58.3587 50.3838L57.3392 50.2215Z" fill="#FEFEFE"/>
<path fill-rule="evenodd" clip-rule="evenodd" d="M57.3392 50.2214H58.2635V50.673L57.3392 50.2214Z" fill="#FEFEFE"/>
<path fill-rule="evenodd" clip-rule="evenodd" d="M58.7751 51.248L58.4822 50.3732L58.0413 50.5107L58.7751 51.248Z" fill="#FEFEFE"/>
<path fill-rule="evenodd" clip-rule="evenodd" d="M58.775 51.248L58.0236 50.7083L58.2953 50.3273L58.775 51.248Z" fill="#FEFEFE"/>
<path fill-rule="evenodd" clip-rule="evenodd" d="M57.6814 51.248L58.4258 50.7083L58.1506 50.3273L57.6814 51.248Z" fill="#FEFEFE"/>
<path fill-rule="evenodd" clip-rule="evenodd" d="M57.6814 51.248L57.9602 50.3732L58.4082 50.5107L57.6814 51.248Z" fill="#FEFEFE"/>
<path fill-rule="evenodd" clip-rule="evenodd" d="M61.2092 50.098L61.0082 50.6731L61.3151 50.7683L61.2092 50.098Z" fill="#FEFEFE"/>
<path fill-rule="evenodd" clip-rule="evenodd" d="M61.2092 50.098L61.3998 50.6731L61.0928 50.7683L61.2092 50.098Z" fill="#FEFEFE"/>
<path fill-rule="evenodd" clip-rule="evenodd" d="M61.7772 50.5178H61.1775V50.8212L61.7772 50.5178Z" fill="#FEFEFE"/>
<path fill-rule="evenodd" clip-rule="evenodd" d="M61.7772 50.5179L61.2868 50.8777L61.1069 50.6272L61.7772 50.5179Z" fill="#FEFEFE"/>
<path fill-rule="evenodd" clip-rule="evenodd" d="M60.6201 50.5179L61.107 50.8777L61.3045 50.6272L60.6201 50.5179Z" fill="#FEFEFE"/>
<path fill-rule="evenodd" clip-rule="evenodd" d="M60.6201 50.5178H61.2339V50.8212L60.6201 50.5178Z" fill="#FEFEFE"/>
<path fill-rule="evenodd" clip-rule="evenodd" d="M61.5549 51.2021L61.3856 50.613L61.0823 50.7188L61.5549 51.2021Z" fill="#FEFEFE"/>
<path fill-rule="evenodd" clip-rule="evenodd" d="M61.555 51.2021L61.0647 50.8423L61.2516 50.5883L61.555 51.2021Z" fill="#FEFEFE"/>
<path fill-rule="evenodd" clip-rule="evenodd" d="M60.8387 51.2021L61.3326 50.8423L61.1598 50.5883L60.8387 51.2021Z" fill="#FEFEFE"/>
<path fill-rule="evenodd" clip-rule="evenodd" d="M60.8387 51.2021L61.0293 50.613L61.315 50.7188L60.8387 51.2021Z" fill="#FEFEFE"/>
<path fill-rule="evenodd" clip-rule="evenodd" d="M59.0925 51.6326L58.8702 52.3664L59.2196 52.4899L59.0925 51.6326Z" fill="#FEFEFE"/>
<path fill-rule="evenodd" clip-rule="evenodd" d="M59.0926 51.6326L59.3254 52.3664L58.9833 52.4899L59.0926 51.6326Z" fill="#FEFEFE"/>
<path fill-rule="evenodd" clip-rule="evenodd" d="M59.8228 52.1688H59.0573V52.5427L59.8228 52.1688Z" fill="#FEFEFE"/>
<path fill-rule="evenodd" clip-rule="evenodd" d="M59.8228 52.1688L59.2196 52.6204L58.9833 52.3099L59.8228 52.1688Z" fill="#FEFEFE"/>
<path fill-rule="evenodd" clip-rule="evenodd" d="M58.3729 52.1688L59.0009 52.6204L59.2196 52.3099L58.3729 52.1688Z" fill="#FEFEFE"/>
<path fill-rule="evenodd" clip-rule="evenodd" d="M58.3729 52.1688H59.1384V52.5427L58.3729 52.1688Z" fill="#FEFEFE"/>
<path fill-rule="evenodd" clip-rule="evenodd" d="M59.5512 53.0261L59.3184 52.2923L58.948 52.4123L59.5512 53.0261Z" fill="#FEFEFE"/>
<path fill-rule="evenodd" clip-rule="evenodd" d="M59.5511 53.0261L58.9303 52.564L59.156 52.2641L59.5511 53.0261Z" fill="#FEFEFE"/>
<path fill-rule="evenodd" clip-rule="evenodd" d="M58.6445 53.0261L59.2655 52.564L59.0396 52.2641L58.6445 53.0261Z" fill="#FEFEFE"/>
<path fill-rule="evenodd" clip-rule="evenodd" d="M58.6445 53.0261L58.8809 52.2923L59.2478 52.4123L58.6445 53.0261Z" fill="#FEFEFE"/>
<path fill-rule="evenodd" clip-rule="evenodd" d="M53.9244 56.1341L53.6844 56.8643L54.0444 56.9843L53.9244 56.1341Z" fill="#FEFEFE"/>
<path fill-rule="evenodd" clip-rule="evenodd" d="M53.9243 56.1341L54.1536 56.8643L53.7867 56.9843L53.9243 56.1341Z" fill="#FEFEFE"/>
<path fill-rule="evenodd" clip-rule="evenodd" d="M54.6511 56.6738H53.889V57.0583L54.6511 56.6738Z" fill="#FEFEFE"/>
<path fill-rule="evenodd" clip-rule="evenodd" d="M54.6511 56.6738L54.0267 57.1147L53.8044 56.8043L54.6511 56.6738Z" fill="#FEFEFE"/>
<path fill-rule="evenodd" clip-rule="evenodd" d="M53.2047 56.6738L53.8221 57.1147L54.0267 56.8043L53.2047 56.6738Z" fill="#FEFEFE"/>
<path fill-rule="evenodd" clip-rule="evenodd" d="M53.2047 56.6738H53.9666V57.0583L53.2047 56.6738Z" fill="#FEFEFE"/>
<path fill-rule="evenodd" clip-rule="evenodd" d="M54.3618 57.5239L54.1466 56.7937L53.7621 56.9101L54.3618 57.5239Z" fill="#FEFEFE"/>
<path fill-rule="evenodd" clip-rule="evenodd" d="M54.3619 57.5239L53.7445 57.0653L53.9666 56.7655L54.3619 57.5239Z" fill="#FEFEFE"/>
<path fill-rule="evenodd" clip-rule="evenodd" d="M53.4799 57.5239L54.0936 57.0653L53.8714 56.7655L53.4799 57.5239Z" fill="#FEFEFE"/>
<path fill-rule="evenodd" clip-rule="evenodd" d="M53.4799 57.5239L53.7092 56.7937L54.076 56.9101L53.4799 57.5239Z" fill="#FEFEFE"/>
<path fill-rule="evenodd" clip-rule="evenodd" d="M53.8891 58.4589L53.7092 59.0339L54.0019 59.1292L53.8891 58.4589Z" fill="#FEFEFE"/>
<path fill-rule="evenodd" clip-rule="evenodd" d="M53.889 58.4589L54.076 59.0339L53.7867 59.1292L53.889 58.4589Z" fill="#FEFEFE"/>
<path fill-rule="evenodd" clip-rule="evenodd" d="M54.4712 58.8822H53.8715V59.1891L54.4712 58.8822Z" fill="#FEFEFE"/>
<path fill-rule="evenodd" clip-rule="evenodd" d="M54.4711 58.8822L53.9666 59.235L53.7867 58.9916L54.4711 58.8822Z" fill="#FEFEFE"/>
<path fill-rule="evenodd" clip-rule="evenodd" d="M53.3176 58.8822L53.8045 59.235L53.9843 58.9916L53.3176 58.8822Z" fill="#FEFEFE"/>
<path fill-rule="evenodd" clip-rule="evenodd" d="M53.3176 58.8822H53.9244V59.1891L53.3176 58.8822Z" fill="#FEFEFE"/>
<path fill-rule="evenodd" clip-rule="evenodd" d="M54.2524 59.5559L54.0619 58.9844L53.7621 59.0761L54.2524 59.5559Z" fill="#FEFEFE"/>
<path fill-rule="evenodd" clip-rule="evenodd" d="M54.2525 59.5559L53.7445 59.2067L53.9314 58.9562L54.2525 59.5559Z" fill="#FEFEFE"/>
<path fill-rule="evenodd" clip-rule="evenodd" d="M53.5363 59.5559L54.0267 59.2067L53.8397 58.9562L53.5363 59.5559Z" fill="#FEFEFE"/>
<path fill-rule="evenodd" clip-rule="evenodd" d="M53.5363 59.5559L53.7268 58.9844L54.0091 59.0761L53.5363 59.5559Z" fill="#FEFEFE"/>
<path fill-rule="evenodd" clip-rule="evenodd" d="M56.0693 54.5923L55.8612 55.1815L56.1434 55.2732L56.0693 54.5923Z" fill="#FEFEFE"/>
<path fill-rule="evenodd" clip-rule="evenodd" d="M56.0693 54.5923L56.2386 55.1815L55.9564 55.2732L56.0693 54.5923Z" fill="#FEFEFE"/>
<path fill-rule="evenodd" clip-rule="evenodd" d="M56.6407 55.0157H56.0164V55.3226L56.6407 55.0157Z" fill="#FEFEFE"/>
<path fill-rule="evenodd" clip-rule="evenodd" d="M56.6408 55.0157L56.1434 55.3861L55.9564 55.1427L56.6408 55.0157Z" fill="#FEFEFE"/>
<path fill-rule="evenodd" clip-rule="evenodd" d="M55.4766 55.0157L55.974 55.3861L56.1434 55.1427L55.4766 55.0157Z" fill="#FEFEFE"/>
<path fill-rule="evenodd" clip-rule="evenodd" d="M55.4766 55.0157H56.101V55.3226L55.4766 55.0157Z" fill="#FEFEFE"/>
<path fill-rule="evenodd" clip-rule="evenodd" d="M56.422 55.7001L56.2209 55.1215L55.9387 55.2203L56.422 55.7001Z" fill="#FEFEFE"/>
<path fill-rule="evenodd" clip-rule="evenodd" d="M56.4221 55.7001L55.9211 55.3473L56.1186 55.0968L56.4221 55.7001Z" fill="#FEFEFE"/>
<path fill-rule="evenodd" clip-rule="evenodd" d="M55.7024 55.7001L56.1963 55.3473L56.0163 55.0968L55.7024 55.7001Z" fill="#FEFEFE"/>
<path fill-rule="evenodd" clip-rule="evenodd" d="M55.7024 55.7001L55.8999 55.1215L56.1786 55.2203L55.7024 55.7001Z" fill="#FEFEFE"/>
<path fill-rule="evenodd" clip-rule="evenodd" d="M57.7803 53.3647L57.5474 54.0879L57.9037 54.2043L57.7803 53.3647Z" fill="#FEFEFE"/>
<path fill-rule="evenodd" clip-rule="evenodd" d="M57.7802 53.3647L58.0236 54.0879L57.6461 54.2043L57.7802 53.3647Z" fill="#FEFEFE"/>
<path fill-rule="evenodd" clip-rule="evenodd" d="M58.4998 53.8939H57.7379V54.2714L58.4998 53.8939Z" fill="#FEFEFE"/>
<path fill-rule="evenodd" clip-rule="evenodd" d="M58.4998 53.8939L57.9037 54.3419L57.6814 54.0244L58.4998 53.8939Z" fill="#FEFEFE"/>
<path fill-rule="evenodd" clip-rule="evenodd" d="M57.0535 53.8939L57.6814 54.3419L57.9037 54.0244L57.0535 53.8939Z" fill="#FEFEFE"/>
<path fill-rule="evenodd" clip-rule="evenodd" d="M57.0535 53.8939H57.8155V54.2714L57.0535 53.8939Z" fill="#FEFEFE"/>
<path fill-rule="evenodd" clip-rule="evenodd" d="M58.2283 54.7371L58.0025 54.0209L57.6285 54.1373L58.2283 54.7371Z" fill="#FEFEFE"/>
<path fill-rule="evenodd" clip-rule="evenodd" d="M58.2282 54.7371L57.6108 54.2961L57.8331 53.9821L58.2282 54.7371Z" fill="#FEFEFE"/>
<path fill-rule="evenodd" clip-rule="evenodd" d="M57.3286 54.7371L57.9602 54.2961L57.7237 53.9821L57.3286 54.7371Z" fill="#FEFEFE"/>
<path fill-rule="evenodd" clip-rule="evenodd" d="M57.3286 54.7371L57.5756 54.0209L57.9249 54.1373L57.3286 54.7371Z" fill="#FEFEFE"/>
<path fill-rule="evenodd" clip-rule="evenodd" d="M53.8221 54.1832L53.6492 54.7688L53.9314 54.8676L53.8221 54.1832Z" fill="#FEFEFE"/>
<path fill-rule="evenodd" clip-rule="evenodd" d="M53.822 54.1832L54.0267 54.7688L53.7268 54.8676L53.822 54.1832Z" fill="#FEFEFE"/>
<path fill-rule="evenodd" clip-rule="evenodd" d="M54.4324 54.6136H53.8044V54.917L54.4324 54.6136Z" fill="#FEFEFE"/>
<path fill-rule="evenodd" clip-rule="evenodd" d="M54.4324 54.6136L53.9243 54.9698L53.7445 54.7123L54.4324 54.6136Z" fill="#FEFEFE"/>
<path fill-rule="evenodd" clip-rule="evenodd" d="M53.254 54.6136L53.7445 54.9698L53.9243 54.7123L53.254 54.6136Z" fill="#FEFEFE"/>
<path fill-rule="evenodd" clip-rule="evenodd" d="M53.254 54.6136H53.8714V54.917L53.254 54.6136Z" fill="#FEFEFE"/>
<path fill-rule="evenodd" clip-rule="evenodd" d="M54.2101 55.3015L54.0091 54.7124L53.7092 54.8041L54.2101 55.3015Z" fill="#FEFEFE"/>
<path fill-rule="evenodd" clip-rule="evenodd" d="M54.2101 55.3015L53.702 54.9276L53.8714 54.6912L54.2101 55.3015Z" fill="#FEFEFE"/>
<path fill-rule="evenodd" clip-rule="evenodd" d="M53.4799 55.3015L53.9666 54.9276L53.7867 54.6912L53.4799 55.3015Z" fill="#FEFEFE"/>
<path fill-rule="evenodd" clip-rule="evenodd" d="M53.4799 55.3015L53.6703 54.7124L53.9666 54.8041L53.4799 55.3015Z" fill="#FEFEFE"/>
<path fill-rule="evenodd" clip-rule="evenodd" d="M34.9871 43.0742L34.7438 43.7974L35.1142 43.9138L34.9871 43.0742Z" fill="#FEFEFE"/>
<path fill-rule="evenodd" clip-rule="evenodd" d="M34.9871 43.0742L35.22 43.7974L34.8602 43.9138L34.9871 43.0742Z" fill="#FEFEFE"/>
<path fill-rule="evenodd" clip-rule="evenodd" d="M35.714 43.6034H34.9519V43.9844L35.714 43.6034Z" fill="#FEFEFE"/>
<path fill-rule="evenodd" clip-rule="evenodd" d="M35.714 43.6034L35.0967 44.062L34.8744 43.741L35.714 43.6034Z" fill="#FEFEFE"/>
<path fill-rule="evenodd" clip-rule="evenodd" d="M34.25 43.6034L34.8744 44.062L35.0967 43.741L34.25 43.6034Z" fill="#FEFEFE"/>
<path fill-rule="evenodd" clip-rule="evenodd" d="M34.25 43.6034H35.0155V43.9844L34.25 43.6034Z" fill="#FEFEFE"/>
<path fill-rule="evenodd" clip-rule="evenodd" d="M35.4318 44.457L35.2131 43.7338L34.8427 43.8503L35.4318 44.457Z" fill="#FEFEFE"/>
<path fill-rule="evenodd" clip-rule="evenodd" d="M35.4318 44.457L34.8074 44.009L35.0297 43.6986L35.4318 44.457Z" fill="#FEFEFE"/>
<path fill-rule="evenodd" clip-rule="evenodd" d="M34.5216 44.457L35.1602 44.009L34.9343 43.6986L34.5216 44.457Z" fill="#FEFEFE"/>
<path fill-rule="evenodd" clip-rule="evenodd" d="M34.5216 44.457L34.7721 43.7338L35.1249 43.8503L34.5216 44.457Z" fill="#FEFEFE"/>
<path fill-rule="evenodd" clip-rule="evenodd" d="M49.0031 41.2609L48.8303 41.85L49.116 41.9382L49.0031 41.2609Z" fill="#FEFEFE"/>
<path fill-rule="evenodd" clip-rule="evenodd" d="M49.0031 41.2609L49.2078 41.85L48.9115 41.9382L49.0031 41.2609Z" fill="#FEFEFE"/>
<path fill-rule="evenodd" clip-rule="evenodd" d="M49.6028 41.6949H48.9855V41.9948L49.6028 41.6949Z" fill="#FEFEFE"/>
<path fill-rule="evenodd" clip-rule="evenodd" d="M49.6028 41.6948L49.0983 42.0547L48.9291 41.8077L49.6028 41.6948Z" fill="#FEFEFE"/>
<path fill-rule="evenodd" clip-rule="evenodd" d="M48.428 41.6948L48.929 42.0547L49.0983 41.8077L48.428 41.6948Z" fill="#FEFEFE"/>
<path fill-rule="evenodd" clip-rule="evenodd" d="M48.428 41.6949H49.056V41.9948L48.428 41.6949Z" fill="#FEFEFE"/>
<path fill-rule="evenodd" clip-rule="evenodd" d="M49.3805 42.3793L49.176 41.7937L48.8938 41.8889L49.3805 42.3793Z" fill="#FEFEFE"/>
<path fill-rule="evenodd" clip-rule="evenodd" d="M49.3806 42.3793L48.8762 42.0124L49.0561 41.7619L49.3806 42.3793Z" fill="#FEFEFE"/>
<path fill-rule="evenodd" clip-rule="evenodd" d="M48.6503 42.3793L49.1477 42.0124L48.9678 41.7619L48.6503 42.3793Z" fill="#FEFEFE"/>
<path fill-rule="evenodd" clip-rule="evenodd" d="M48.6503 42.3793L48.8409 41.7937L49.1301 41.8889L48.6503 42.3793Z" fill="#FEFEFE"/>
<path fill-rule="evenodd" clip-rule="evenodd" d="M43.1646 51.6856L42.8754 52.5569L43.3163 52.7051L43.1646 51.6856Z" fill="#FEFEFE"/>
<path fill-rule="evenodd" clip-rule="evenodd" d="M43.1646 51.6856L43.4504 52.5569L43.02 52.7051L43.1646 51.6856Z" fill="#FEFEFE"/>
<path fill-rule="evenodd" clip-rule="evenodd" d="M44.0359 52.3169H43.1293V52.7826L44.0359 52.3169Z" fill="#FEFEFE"/>
<path fill-rule="evenodd" clip-rule="evenodd" d="M44.036 52.317L43.2987 52.8673L43.0377 52.4898L44.036 52.317Z" fill="#FEFEFE"/>
<path fill-rule="evenodd" clip-rule="evenodd" d="M42.2897 52.317L43.0553 52.8673L43.2987 52.4898L42.2897 52.317Z" fill="#FEFEFE"/>
<path fill-rule="evenodd" clip-rule="evenodd" d="M42.2897 52.3169H43.2069V52.7826L42.2897 52.3169Z" fill="#FEFEFE"/>
<path fill-rule="evenodd" clip-rule="evenodd" d="M43.7044 53.3541L43.4327 52.4828L42.9847 52.6204L43.7044 53.3541Z" fill="#FEFEFE"/>
<path fill-rule="evenodd" clip-rule="evenodd" d="M43.7044 53.3541L42.9672 52.8109L43.2282 52.4404L43.7044 53.3541Z" fill="#FEFEFE"/>
<path fill-rule="evenodd" clip-rule="evenodd" d="M42.6249 53.3541L43.3729 52.8109L43.0941 52.4404L42.6249 53.3541Z" fill="#FEFEFE"/>
<path fill-rule="evenodd" clip-rule="evenodd" d="M42.6249 53.3541L42.9107 52.4828L43.3552 52.6204L42.6249 53.3541Z" fill="#FEFEFE"/>
<path fill-rule="evenodd" clip-rule="evenodd" d="M45.6587 47.5721L45.4224 48.3024L45.7893 48.4153L45.6587 47.5721Z" fill="#FEFEFE"/>
<path fill-rule="evenodd" clip-rule="evenodd" d="M45.6588 47.5721L45.8987 48.3024L45.5319 48.4153L45.6588 47.5721Z" fill="#FEFEFE"/>
<path fill-rule="evenodd" clip-rule="evenodd" d="M46.3819 48.1048H45.6094V48.4752L46.3819 48.1048Z" fill="#FEFEFE"/>
<path fill-rule="evenodd" clip-rule="evenodd" d="M46.382 48.1048L45.7541 48.5529L45.5319 48.246L46.382 48.1048Z" fill="#FEFEFE"/>
<path fill-rule="evenodd" clip-rule="evenodd" d="M44.9285 48.1048L45.5494 48.5529L45.7717 48.246L44.9285 48.1048Z" fill="#FEFEFE"/>
<path fill-rule="evenodd" clip-rule="evenodd" d="M44.9285 48.1048H45.694V48.4752L44.9285 48.1048Z" fill="#FEFEFE"/>
<path fill-rule="evenodd" clip-rule="evenodd" d="M46.1068 48.962L45.8669 48.2283L45.5035 48.3517L46.1068 48.962Z" fill="#FEFEFE"/>
<path fill-rule="evenodd" clip-rule="evenodd" d="M46.1069 48.962L45.486 48.507L45.7117 48.193L46.1069 48.962Z" fill="#FEFEFE"/>
<path fill-rule="evenodd" clip-rule="evenodd" d="M45.1967 48.962L45.8246 48.507L45.6023 48.193L45.1967 48.962Z" fill="#FEFEFE"/>
<path fill-rule="evenodd" clip-rule="evenodd" d="M45.1967 48.962L45.44 48.2283L45.807 48.3517L45.1967 48.962Z" fill="#FEFEFE"/>
<path fill-rule="evenodd" clip-rule="evenodd" d="M43.1646 45.6495L42.9247 46.3727L43.2917 46.4891L43.1646 45.6495Z" fill="#FEFEFE"/>
<path fill-rule="evenodd" clip-rule="evenodd" d="M43.1646 45.6495L43.3975 46.3727L43.0553 46.4891L43.1646 45.6495Z" fill="#FEFEFE"/>
<path fill-rule="evenodd" clip-rule="evenodd" d="M43.8913 46.1716H43.1293V46.5597L43.8913 46.1716Z" fill="#FEFEFE"/>
<path fill-rule="evenodd" clip-rule="evenodd" d="M43.8914 46.1716L43.2774 46.6196L43.0553 46.3127L43.8914 46.1716Z" fill="#FEFEFE"/>
<path fill-rule="evenodd" clip-rule="evenodd" d="M42.4449 46.1716L43.0729 46.6196L43.2774 46.3127L42.4449 46.1716Z" fill="#FEFEFE"/>
<path fill-rule="evenodd" clip-rule="evenodd" d="M42.4449 46.1716H43.2069V46.5597L42.4449 46.1716Z" fill="#FEFEFE"/>
<path fill-rule="evenodd" clip-rule="evenodd" d="M43.6232 47.0288L43.3904 46.2986L43.02 46.415L43.6232 47.0288Z" fill="#FEFEFE"/>
<path fill-rule="evenodd" clip-rule="evenodd" d="M43.6232 47.0288L43.0024 46.5808L43.2282 46.2703L43.6232 47.0288Z" fill="#FEFEFE"/>
<path fill-rule="evenodd" clip-rule="evenodd" d="M42.7236 47.0288L43.3375 46.5808L43.1117 46.2703L42.7236 47.0288Z" fill="#FEFEFE"/>
<path fill-rule="evenodd" clip-rule="evenodd" d="M42.7236 47.0288L42.9495 46.2986L43.3163 46.415L42.7236 47.0288Z" fill="#FEFEFE"/>
<path fill-rule="evenodd" clip-rule="evenodd" d="M40.995 47.7273L40.808 48.313L41.1044 48.4082L40.995 47.7273Z" fill="#FEFEFE"/>
<path fill-rule="evenodd" clip-rule="evenodd" d="M40.995 47.7273L41.2032 48.313L40.8998 48.4082L40.995 47.7273Z" fill="#FEFEFE"/>
<path fill-rule="evenodd" clip-rule="evenodd" d="M41.5913 48.1507H40.9774V48.4506L41.5913 48.1507Z" fill="#FEFEFE"/>
<path fill-rule="evenodd" clip-rule="evenodd" d="M41.5913 48.1507L41.0868 48.5105L40.8998 48.2565L41.5913 48.1507Z" fill="#FEFEFE"/>
<path fill-rule="evenodd" clip-rule="evenodd" d="M40.4305 48.1507L40.9174 48.5105L41.0868 48.2565L40.4305 48.1507Z" fill="#FEFEFE"/>
<path fill-rule="evenodd" clip-rule="evenodd" d="M40.4305 48.1507H41.0338V48.4506L40.4305 48.1507Z" fill="#FEFEFE"/>
<path fill-rule="evenodd" clip-rule="evenodd" d="M41.3654 48.8386L41.1856 48.253L40.8857 48.3447L41.3654 48.8386Z" fill="#FEFEFE"/>
<path fill-rule="evenodd" clip-rule="evenodd" d="M41.3654 48.8386L40.8785 48.4717L41.0655 48.2283L41.3654 48.8386Z" fill="#FEFEFE"/>
<path fill-rule="evenodd" clip-rule="evenodd" d="M40.6528 48.8386L41.1431 48.4717L40.9633 48.2283L40.6528 48.8386Z" fill="#FEFEFE"/>
<path fill-rule="evenodd" clip-rule="evenodd" d="M40.6528 48.8386L40.8433 48.253L41.1255 48.3447L40.6528 48.8386Z" fill="#FEFEFE"/>
<path fill-rule="evenodd" clip-rule="evenodd" d="M42.0922 49.3924L41.9581 49.8087L42.1628 49.8722L42.0922 49.3924Z" fill="#FEFEFE"/>
<path fill-rule="evenodd" clip-rule="evenodd" d="M42.0922 49.3924L42.2227 49.8087L42.0146 49.8722L42.0922 49.3924Z" fill="#FEFEFE"/>
<path fill-rule="evenodd" clip-rule="evenodd" d="M42.5049 49.6958H42.0675V49.911L42.5049 49.6958Z" fill="#FEFEFE"/>
<path fill-rule="evenodd" clip-rule="evenodd" d="M42.5049 49.6958L42.1627 49.9498L42.0322 49.7734L42.5049 49.6958Z" fill="#FEFEFE"/>
<path fill-rule="evenodd" clip-rule="evenodd" d="M41.6653 49.6958L42.0323 49.9498L42.1628 49.7734L41.6653 49.6958Z" fill="#FEFEFE"/>
<path fill-rule="evenodd" clip-rule="evenodd" d="M41.6653 49.6958H42.1133V49.911L41.6653 49.6958Z" fill="#FEFEFE"/>
<path fill-rule="evenodd" clip-rule="evenodd" d="M42.3355 50.1897L42.205 49.7699L41.9969 49.8334L42.3355 50.1897Z" fill="#FEFEFE"/>
<path fill-rule="evenodd" clip-rule="evenodd" d="M42.3356 50.1897L41.9828 49.9322L42.1309 49.7523L42.3356 50.1897Z" fill="#FEFEFE"/>
<path fill-rule="evenodd" clip-rule="evenodd" d="M41.8241 50.1897L42.1805 49.9322L42.05 49.7523L41.8241 50.1897Z" fill="#FEFEFE"/>
<path fill-rule="evenodd" clip-rule="evenodd" d="M41.8241 50.1897L41.9758 49.7699L42.1805 49.8334L41.8241 50.1897Z" fill="#FEFEFE"/>
<path fill-rule="evenodd" clip-rule="evenodd" d="M49.6028 56.6597L49.3629 57.3935L49.7299 57.5134L49.6028 56.6597Z" fill="#FEFEFE"/>
<path fill-rule="evenodd" clip-rule="evenodd" d="M49.6028 56.6597L49.8463 57.3935L49.4688 57.5134L49.6028 56.6597Z" fill="#FEFEFE"/>
<path fill-rule="evenodd" clip-rule="evenodd" d="M50.3226 57.1853H49.5605V57.5804L50.3226 57.1853Z" fill="#FEFEFE"/>
<path fill-rule="evenodd" clip-rule="evenodd" d="M50.3225 57.1853L49.7052 57.6439L49.4829 57.3264L50.3225 57.1853Z" fill="#FEFEFE"/>
<path fill-rule="evenodd" clip-rule="evenodd" d="M48.8762 57.1853L49.483 57.6439L49.7229 57.3264L48.8762 57.1853Z" fill="#FEFEFE"/>
<path fill-rule="evenodd" clip-rule="evenodd" d="M48.8762 57.1853H49.6381V57.5804L48.8762 57.1853Z" fill="#FEFEFE"/>
<path fill-rule="evenodd" clip-rule="evenodd" d="M50.0473 58.0496L49.811 57.3193L49.451 57.4392L50.0473 58.0496Z" fill="#FEFEFE"/>
<path fill-rule="evenodd" clip-rule="evenodd" d="M50.0474 58.0496L49.4335 57.6015L49.6557 57.2911L50.0474 58.0496Z" fill="#FEFEFE"/>
<path fill-rule="evenodd" clip-rule="evenodd" d="M49.1478 58.0496L49.7652 57.6015L49.5429 57.2911L49.1478 58.0496Z" fill="#FEFEFE"/>
<path fill-rule="evenodd" clip-rule="evenodd" d="M49.1478 58.0496L49.3806 57.3193L49.7475 57.4392L49.1478 58.0496Z" fill="#FEFEFE"/>
<path fill-rule="evenodd" clip-rule="evenodd" d="M51.4372 54.9169L51.2502 55.499L51.5325 55.6013L51.4372 54.9169Z" fill="#FEFEFE"/>
<path fill-rule="evenodd" clip-rule="evenodd" d="M51.4372 54.9169L51.6278 55.499L51.3243 55.6013L51.4372 54.9169Z" fill="#FEFEFE"/>
<path fill-rule="evenodd" clip-rule="evenodd" d="M52.0229 55.3473H51.4055V55.6366L52.0229 55.3473Z" fill="#FEFEFE"/>
<path fill-rule="evenodd" clip-rule="evenodd" d="M52.0229 55.3473L51.5325 55.7001L51.342 55.4567L52.0229 55.3473Z" fill="#FEFEFE"/>
<path fill-rule="evenodd" clip-rule="evenodd" d="M50.8446 55.3473L51.3421 55.7001L51.5325 55.4567L50.8446 55.3473Z" fill="#FEFEFE"/>
<path fill-rule="evenodd" clip-rule="evenodd" d="M50.8446 55.3473H51.4726V55.6366L50.8446 55.3473Z" fill="#FEFEFE"/>
<path fill-rule="evenodd" clip-rule="evenodd" d="M51.797 56.0211L51.6101 55.439L51.3243 55.5413L51.797 56.0211Z" fill="#FEFEFE"/>
<path fill-rule="evenodd" clip-rule="evenodd" d="M51.797 56.0211L51.3103 55.6613L51.4901 55.4179L51.797 56.0211Z" fill="#FEFEFE"/>
<path fill-rule="evenodd" clip-rule="evenodd" d="M51.088 56.0211L51.5749 55.6613L51.3879 55.4179L51.088 56.0211Z" fill="#FEFEFE"/>
<path fill-rule="evenodd" clip-rule="evenodd" d="M51.088 56.0211L51.2785 55.439L51.5677 55.5413L51.088 56.0211Z" fill="#FEFEFE"/>
<path fill-rule="evenodd" clip-rule="evenodd" d="M47.906 54.3913L47.7155 54.9698L48.0013 55.0686L47.906 54.3913Z" fill="#FEFEFE"/>
<path fill-rule="evenodd" clip-rule="evenodd" d="M47.906 54.3913L48.0928 54.9698L47.8142 55.0686L47.906 54.3913Z" fill="#FEFEFE"/>
<path fill-rule="evenodd" clip-rule="evenodd" d="M48.4809 54.8111H47.8707V55.1216L48.4809 54.8111Z" fill="#FEFEFE"/>
<path fill-rule="evenodd" clip-rule="evenodd" d="M48.4809 54.8111L47.9836 55.1815L47.8142 54.9205L48.4809 54.8111Z" fill="#FEFEFE"/>
<path fill-rule="evenodd" clip-rule="evenodd" d="M47.3134 54.8111L47.8143 55.1815L47.9836 54.9205L47.3134 54.8111Z" fill="#FEFEFE"/>
<path fill-rule="evenodd" clip-rule="evenodd" d="M47.3134 54.8111H47.9413V55.1216L47.3134 54.8111Z" fill="#FEFEFE"/>
<path fill-rule="evenodd" clip-rule="evenodd" d="M48.2658 55.499L48.0752 54.9169L47.7789 55.0157L48.2658 55.499Z" fill="#FEFEFE"/>
<path fill-rule="evenodd" clip-rule="evenodd" d="M48.2659 55.499L47.7614 55.1427L47.9518 54.8958L48.2659 55.499Z" fill="#FEFEFE"/>
<path fill-rule="evenodd" clip-rule="evenodd" d="M47.5356 55.499L48.033 55.1427L47.8531 54.8958L47.5356 55.499Z" fill="#FEFEFE"/>
<path fill-rule="evenodd" clip-rule="evenodd" d="M47.5356 55.499L47.7261 54.9169L48.033 55.0157L47.5356 55.499Z" fill="#FEFEFE"/>
<path fill-rule="evenodd" clip-rule="evenodd" d="M34.5392 53.4353L34.2676 54.3102L34.6945 54.4548L34.5392 53.4353Z" fill="#FEFEFE"/>
<path fill-rule="evenodd" clip-rule="evenodd" d="M34.5392 53.4353L34.825 54.3102L34.3947 54.4548L34.5392 53.4353Z" fill="#FEFEFE"/>
<path fill-rule="evenodd" clip-rule="evenodd" d="M35.4317 54.0808H34.5039V54.5359L35.4317 54.0808Z" fill="#FEFEFE"/>
<path fill-rule="evenodd" clip-rule="evenodd" d="M35.4317 54.0809L34.6732 54.6171L34.4122 54.2431L35.4317 54.0809Z" fill="#FEFEFE"/>
<path fill-rule="evenodd" clip-rule="evenodd" d="M33.6572 54.0809L34.4299 54.6171L34.6803 54.2431L33.6572 54.0809Z" fill="#FEFEFE"/>
<path fill-rule="evenodd" clip-rule="evenodd" d="M33.6572 54.0808H34.5851V54.5359L33.6572 54.0808Z" fill="#FEFEFE"/>
<path fill-rule="evenodd" clip-rule="evenodd" d="M35.079 55.1074L34.8074 54.2361L34.3805 54.3736L35.079 55.1074Z" fill="#FEFEFE"/>
<path fill-rule="evenodd" clip-rule="evenodd" d="M35.0789 55.1074L34.3417 54.5641L34.6027 54.1937L35.0789 55.1074Z" fill="#FEFEFE"/>
<path fill-rule="evenodd" clip-rule="evenodd" d="M33.9994 55.1074L34.7438 54.5641L34.4756 54.1937L33.9994 55.1074Z" fill="#FEFEFE"/>
<path fill-rule="evenodd" clip-rule="evenodd" d="M33.9994 55.1074L34.3028 54.2361L34.7262 54.3736L33.9994 55.1074Z" fill="#FEFEFE"/>
<path fill-rule="evenodd" clip-rule="evenodd" d="M43.1646 59.4536L43.073 59.7535L43.2069 59.8029L43.1646 59.4536Z" fill="#FEFEFE"/>
<path fill-rule="evenodd" clip-rule="evenodd" d="M43.1646 59.4536L43.2598 59.7535L43.1293 59.8029L43.1646 59.4536Z" fill="#FEFEFE"/>
<path fill-rule="evenodd" clip-rule="evenodd" d="M43.4645 59.6724H43.147V59.8241L43.4645 59.6724Z" fill="#FEFEFE"/>
<path fill-rule="evenodd" clip-rule="evenodd" d="M43.4644 59.6724L43.2069 59.8558L43.1293 59.7288L43.4644 59.6724Z" fill="#FEFEFE"/>
<path fill-rule="evenodd" clip-rule="evenodd" d="M42.8754 59.6724L43.1293 59.8558L43.2069 59.7288L42.8754 59.6724Z" fill="#FEFEFE"/>
<path fill-rule="evenodd" clip-rule="evenodd" d="M42.8754 59.6724H43.1752V59.8241L42.8754 59.6724Z" fill="#FEFEFE"/>
<path fill-rule="evenodd" clip-rule="evenodd" d="M43.3376 60.0111L43.2598 59.7254L43.1117 59.7747L43.3376 60.0111Z" fill="#FEFEFE"/>
<path fill-rule="evenodd" clip-rule="evenodd" d="M43.3375 60.0111L43.094 59.8382L43.1752 59.7183L43.3375 60.0111Z" fill="#FEFEFE"/>
<path fill-rule="evenodd" clip-rule="evenodd" d="M42.9847 60.0111L43.2281 59.8382L43.1469 59.7183L42.9847 60.0111Z" fill="#FEFEFE"/>
<path fill-rule="evenodd" clip-rule="evenodd" d="M42.9847 60.0111L43.0906 59.7254L43.2281 59.7747L42.9847 60.0111Z" fill="#FEFEFE"/>
</svg>
