<svg width="86" height="87" viewBox="0 0 86 87" fill="none" xmlns="http://www.w3.org/2000/svg">
<path fill-rule="evenodd" clip-rule="evenodd" d="M15.1977 86.0319H20.2142V-3.45283e-05H15.1977C7.21783 0.21516 0.673806 6.47338 0 14.3368V71.6949C0.673806 79.5618 7.21783 85.8131 15.1977 86.0319" fill="#E42229"/>
<path fill-rule="evenodd" clip-rule="evenodd" d="M65.7154 86.0319H70.7319C78.7153 85.8131 85.2558 79.5618 85.9296 71.6949V14.3368C85.2558 6.47338 78.7153 0.21516 70.7319 -3.45283e-05H65.7154V86.0319" fill="#E42229"/>
<path fill-rule="evenodd" clip-rule="evenodd" d="M20.2142 86.0319H65.7154V-3.45283e-05H20.2142V86.0319Z" fill="#FEFEFE"/>
<path fill-rule="evenodd" clip-rule="evenodd" d="M42.9648 21.7839L39.497 28.5148C39.1019 29.2451 38.3999 29.1711 37.6943 28.7689L35.1825 27.4072L37.0522 37.7612C37.4474 39.6486 36.1844 39.6485 35.5635 38.8336L31.1856 33.7255L30.4729 36.3148C30.3918 36.657 30.032 37.0168 29.4887 36.9286L23.9536 35.7115L25.4106 41.222C25.7246 42.4497 25.9609 42.9611 25.0931 43.2822L23.1175 44.2453L32.6566 52.3133C33.0271 52.6237 33.2246 53.1635 33.0835 53.6645L32.251 56.5184C35.5318 56.1268 38.4775 55.767 41.7513 55.3718C42.0405 55.3718 42.5309 55.6293 42.5274 55.9786L42.0899 66.428H43.6915L43.434 55.9998C43.434 55.6611 43.875 55.3718 44.1607 55.3718C47.4451 55.767 50.3872 56.1268 53.6716 56.5184L52.8285 53.6645C52.7015 53.1635 52.8955 52.6237 53.2659 52.3133L62.798 44.2453L60.8224 43.2822C59.9546 42.9611 60.198 42.4532 60.5085 41.222L61.9654 35.7115L56.4268 36.9286C55.8835 37.0168 55.5272 36.6571 55.4461 36.3184L54.737 33.7255L50.3555 38.8336C49.7346 39.6485 48.4717 39.6486 48.8668 37.7612L50.733 27.4072L48.2318 28.7689C47.5227 29.1711 46.8171 29.2451 46.4291 28.5148L42.9648 21.7839" fill="#E42229"/>
</svg>
