<svg width="87" height="87" viewBox="0 0 87 87" fill="none" xmlns="http://www.w3.org/2000/svg">
<path fill-rule="evenodd" clip-rule="evenodd" d="M15.2767 3.54592e-05H70.9098C79.32 0.254035 86.118 7.20737 86.118 15.6776V70.351C86.118 78.8177 79.32 85.7709 70.9098 86.0249H15.2767C6.87005 85.7709 0.0720215 78.8177 0.0720215 70.351V15.6776C0.0720215 7.20737 6.87005 0.254035 15.2767 3.54592e-05Z" fill="#FEFEFE"/>
<path fill-rule="evenodd" clip-rule="evenodd" d="M12.4439 19.4135C12.3627 20.9904 12.2075 22.5567 11.9676 24.0913C11.8829 24.5852 11.7877 25.0791 11.7101 25.5659C12.6661 25.446 13.6398 25.3789 14.6487 25.3789C15.633 25.3754 16.6208 25.4495 17.5733 25.5659C17.478 25.0791 17.4039 24.5852 17.3122 24.0913C17.0829 22.5567 16.9207 20.9904 16.8607 19.4135C18.9456 19.5052 20.9952 19.7662 22.9884 20.1437C22.8755 19.1735 22.8155 18.1999 22.8155 17.2192C22.8155 16.2103 22.8755 15.2437 22.9884 14.2735C20.9952 14.651 18.9456 14.905 16.8607 15.0037C16.9383 12.9153 17.1887 10.855 17.5733 8.84418C16.6208 8.97118 15.633 9.02774 14.6487 9.02774C13.6398 9.02421 12.6661 8.97118 11.7101 8.84418C12.0805 10.855 12.3275 12.9153 12.4403 15.0037C10.3378 14.905 8.28465 14.651 6.27734 14.2735C6.4114 15.2437 6.46427 16.2103 6.46427 17.2192C6.4678 18.1999 6.40787 19.1735 6.27734 20.1437C8.28465 19.7662 10.3378 19.5052 12.4439 19.4135" fill="#D6253A"/>
<path fill-rule="evenodd" clip-rule="evenodd" d="M69.347 19.4135C69.2694 20.9904 69.1072 22.5567 68.8673 24.0913C68.8073 24.5852 68.7121 25.0791 68.6168 25.5659C69.5693 25.446 70.5571 25.3789 71.5414 25.3789C72.5327 25.3754 73.5204 25.4495 74.48 25.5659C74.3847 25.0791 74.3142 24.5852 74.2401 24.0913C73.9826 22.5567 73.8379 20.9904 73.7568 19.4135C75.8452 19.5052 77.9054 19.7662 79.9127 20.1437C79.7822 19.1735 79.7152 18.1999 79.7152 17.2192C79.7152 16.2103 79.7822 15.2437 79.9127 14.2735C77.9054 14.651 75.8452 14.905 73.7568 15.0037C73.8732 12.9153 74.1095 10.855 74.48 8.84418C73.5204 8.97118 72.5327 9.02774 71.5414 9.02774C70.5571 9.02421 69.5693 8.97118 68.6168 8.84418C68.9943 10.855 69.2518 12.9153 69.3435 15.0037C67.2621 14.905 65.2019 14.651 63.1946 14.2735C63.3145 15.2437 63.3746 16.2103 63.3746 17.2192C63.3746 18.1999 63.3145 19.1735 63.1946 20.1437C65.2019 19.7662 67.2621 19.5052 69.347 19.4135" fill="#D6253A"/>
<path fill-rule="evenodd" clip-rule="evenodd" d="M16.8607 66.6221C16.9207 65.0381 17.0794 63.4718 17.3122 61.9443C17.4039 61.4575 17.478 60.9601 17.5733 60.4732C16.6208 60.5897 15.633 60.6567 14.6487 60.6567C13.6398 60.6567 12.6661 60.5897 11.7101 60.4732C11.7877 60.9601 11.8829 61.4575 11.9676 61.9443C12.2075 63.4718 12.3627 65.0382 12.4403 66.6257C10.3378 66.5199 8.28465 66.2623 6.27734 65.8954C6.4114 66.8585 6.46427 67.8251 6.46427 68.8306C6.4678 69.8148 6.40787 70.8025 6.27734 71.755C8.28465 71.3776 10.3378 71.1307 12.4403 71.0354C12.3275 73.1168 12.0805 75.17 11.7101 77.1808C12.6661 77.0608 13.6398 77.0009 14.6487 77.0009C15.633 77.0009 16.6208 77.0608 17.5733 77.1808C17.1887 75.17 16.9348 73.1203 16.8607 71.0354C18.9456 71.1307 20.9952 71.3811 22.9884 71.755C22.8755 70.8025 22.8155 69.8148 22.8155 68.8306C22.8155 67.8251 22.8755 66.8585 22.9884 65.8954C20.9952 66.2623 18.9456 66.5198 16.8607 66.6221Z" fill="#D6253A"/>
<path fill-rule="evenodd" clip-rule="evenodd" d="M73.7568 66.6221C73.8379 65.0381 74.0002 63.4718 74.2401 61.9443C74.3142 61.4575 74.3847 60.9601 74.48 60.4732C73.5204 60.5897 72.5327 60.6567 71.5414 60.6567C70.5571 60.6567 69.5693 60.5897 68.6168 60.4732C68.7156 60.9601 68.8038 61.4575 68.8673 61.9443C69.1072 63.4718 69.2694 65.0382 69.3435 66.6257C67.2621 66.5199 65.2019 66.2623 63.1946 65.8954C63.3145 66.8585 63.3746 67.8251 63.3746 68.8306C63.3746 69.8148 63.3145 70.8025 63.1946 71.755C65.2019 71.3776 67.2621 71.1307 69.3435 71.0354C69.2518 73.1168 68.9943 75.17 68.6168 77.1808C69.5693 77.0608 70.5571 77.0009 71.5414 77.0009C72.5327 77.0009 73.5204 77.0608 74.48 77.1808C74.1095 75.17 73.8732 73.1203 73.7568 71.0354C75.8452 71.1307 77.9054 71.3811 79.9127 71.755C79.7822 70.8025 79.7152 69.8148 79.7152 68.8306C79.7152 67.8251 79.7822 66.8585 79.9127 65.8954C77.9054 66.2623 75.8452 66.5198 73.7568 66.6221Z" fill="#D6253A"/>
<path fill-rule="evenodd" clip-rule="evenodd" d="M51.7645 86.0249H34.436V3.54592e-05H51.7645V86.0249" fill="#D6253A"/>
<path fill-rule="evenodd" clip-rule="evenodd" d="M0.0720215 34.3253H86.118V51.6785H0.0720215V34.3253Z" fill="#D6253A"/>
</svg>
