<svg width="87" height="87" viewBox="0 0 87 87" fill="none" xmlns="http://www.w3.org/2000/svg">
<path fill-rule="evenodd" clip-rule="evenodd" d="M15.2308 86.0249H70.8674C77.1257 85.8379 82.4949 81.9327 84.8303 76.4576H1.27136C3.60675 81.9327 8.97254 85.8379 15.2308 86.0249Z" fill="#2D2F77"/>
<path fill-rule="evenodd" clip-rule="evenodd" d="M1.27133 76.4575H84.8303C85.6275 74.5772 86.0721 72.5135 86.0721 70.3509V66.9043H0.026062V70.3509C0.026062 72.5135 0.470521 74.5772 1.27133 76.4575Z" fill="#FEFEFE"/>
<path fill-rule="evenodd" clip-rule="evenodd" d="M0.026062 66.9043H86.0721V57.3476H0.026062V66.9043Z" fill="#2D2F77"/>
<path fill-rule="evenodd" clip-rule="evenodd" d="M0.026062 57.3477H86.0721V47.7838H0.026062V57.3477Z" fill="#FEFEFE"/>
<path fill-rule="evenodd" clip-rule="evenodd" d="M0.026062 47.7838H86.0721V38.2235H0.026062V47.7838Z" fill="#2D2F77"/>
<path fill-rule="evenodd" clip-rule="evenodd" d="M0.026062 38.2235H86.0721V28.6597H0.026062V38.2235Z" fill="#FEFEFE"/>
<path fill-rule="evenodd" clip-rule="evenodd" d="M0.026062 28.6597H86.0721V19.1065H0.026062V28.6597Z" fill="#2D2F77"/>
<path fill-rule="evenodd" clip-rule="evenodd" d="M0.026062 19.1066H86.0721V15.6776C86.0721 13.501 85.6241 11.4301 84.8162 9.54271H1.28194C0.474076 11.4301 0.026062 13.501 0.026062 15.6776V19.1066Z" fill="#FEFEFE"/>
<path fill-rule="evenodd" clip-rule="evenodd" d="M1.28192 9.5426H84.8162C82.4773 4.0816 77.115 0.186935 70.8673 -3.69903e-05H15.2308C8.98307 0.186935 3.62437 4.0816 1.28192 9.5426Z" fill="#2D2F77"/>
<path fill-rule="evenodd" clip-rule="evenodd" d="M0.026062 47.7838H47.8168V6.02696e-05H15.2308C6.82409 0.25406 0.026062 7.20739 0.026062 15.6776V47.7838" fill="#2D2F77"/>
<path fill-rule="evenodd" clip-rule="evenodd" d="M0.026062 28.6597H47.8168V19.1065H0.026062V28.6597Z" fill="#FEFEFE"/>
<path fill-rule="evenodd" clip-rule="evenodd" d="M19.1466 6.02696e-05H28.6928V47.7838H19.1466V6.02696e-05Z" fill="#FEFEFE"/>
</svg>
