<svg width="88" height="87" viewBox="0 0 88 87" fill="none" xmlns="http://www.w3.org/2000/svg">
<path fill-rule="evenodd" clip-rule="evenodd" d="M16.2297 86.0319H71.764C80.1954 85.8026 87.0216 78.8386 87.0216 70.3543V15.6774C87.0216 7.19658 80.1954 0.229271 71.764 -3.45283e-05H16.2297C7.80188 0.229271 0.975616 7.19658 0.975616 15.6774V70.3543C0.975616 78.8386 7.80188 85.8026 16.2297 86.0319Z" fill="#304689"/>
<path fill-rule="evenodd" clip-rule="evenodd" d="M0.975616 57.3545H87.0216V15.6774C87.0216 7.1966 80.1954 0.229293 71.764 -1.25298e-05H16.2297C7.80188 0.229293 0.975616 7.1966 0.975616 15.6774V57.3545Z" fill="#FEFEFE"/>
<path fill-rule="evenodd" clip-rule="evenodd" d="M0.975616 28.6772H87.0216V15.6774C87.0216 7.19661 80.1954 0.229299 71.764 -6.26492e-06H16.2297C7.80188 0.229299 0.975616 7.19661 0.975616 15.6774V28.6772Z" fill="#A92838"/>
</svg>
