<svg width="87" height="86" viewBox="0 0 87 86" fill="none" xmlns="http://www.w3.org/2000/svg">
<path fill-rule="evenodd" clip-rule="evenodd" d="M13.47 85.8345H73.2446C80.6706 84.6102 86.3822 78.1191 86.3822 70.3616V15.6845C86.3822 7.92695 80.6706 1.43937 73.2446 0.2117H13.47C6.04406 1.43937 0.332642 7.92695 0.332642 15.6845V70.3616C0.332642 78.1191 6.04406 84.6102 13.47 85.8345Z" fill="#2D3577"/>
<path fill-rule="evenodd" clip-rule="evenodd" d="M0.332642 22.0486L3.01375 20.708H0.332642V22.0486Z" fill="#2D3577"/>
<path fill-rule="evenodd" clip-rule="evenodd" d="M25.4822 -1.1826e-05V9.47913L44.4157 -1.1826e-05H25.4822Z" fill="#2D3577"/>
<path fill-rule="evenodd" clip-rule="evenodd" d="M5.09521 4.45557L15.1282 9.47913V0.0282121C11.2441 0.246934 7.72694 1.89793 5.09521 4.45557Z" fill="#2D3577"/>
<path fill-rule="evenodd" clip-rule="evenodd" d="M1.27454 10.354H3.01376L1.5602 9.62728C1.4579 9.86717 1.36273 10.1071 1.27454 10.354" fill="#2D3577"/>
<path fill-rule="evenodd" clip-rule="evenodd" d="M51.3619 -1.89412e-05L30.6573 10.354H26.0183L46.7229 -1.89412e-05H44.4156L25.4821 9.47912V-1.89412e-05H23.4077V10.5092V11.6663V12.4283H26.5122H31.1442H32.7281H33.4549H51.3866V10.354H37.5964L51.3866 3.46426V3.09737V2.30714V-1.89412e-05H51.3619" fill="#FEFEFE"/>
<path fill-rule="evenodd" clip-rule="evenodd" d="M15.1281 0.028205V9.47912L5.09511 4.45557C4.33311 5.1964 3.64514 6.01484 3.04542 6.89679L9.95628 10.354H5.32786L1.99411 8.6889C1.83889 8.99582 1.69422 9.30978 1.56017 9.62728L3.01372 10.354H1.2745C1.02756 11.0243 0.829917 11.7193 0.678223 12.4283H7.14825H9.46956H14.0909H17.2059V11.6663V10.8761V10.5092V-1.89412e-05H16.017C15.7207 -1.89412e-05 15.4244 0.0105661 15.1281 0.028205" fill="#FEFEFE"/>
<path fill-rule="evenodd" clip-rule="evenodd" d="M31.1442 18.6373H23.4077V31.2667H25.4821V21.5936L44.8249 31.2667H45.5587H47.139H51.3866V31.0727L30.6573 20.7081H35.2823L51.3866 28.762V27.6049L37.5964 20.7081H51.3866V18.6373H33.4549H31.1442" fill="#FEFEFE"/>
<path fill-rule="evenodd" clip-rule="evenodd" d="M14.091 18.6373H0.332642V20.7081H3.01375L0.332642 22.0486V25.52L9.95631 20.7081H14.5849L0.332642 27.8342V28.9913L15.1281 21.5936V31.2667H17.2059V20.5564V19.3993V18.6373H14.091Z" fill="#FEFEFE"/>
<path fill-rule="evenodd" clip-rule="evenodd" d="M9.95631 20.7081L0.332642 25.52V27.8342L14.5849 20.7081H9.95631Z" fill="#C3283A"/>
<path fill-rule="evenodd" clip-rule="evenodd" d="M1.99414 8.68889L5.32789 10.354H9.95631L3.04545 6.89678C2.65739 7.46828 2.30459 8.06801 1.99414 8.68889" fill="#C3283A"/>
<path fill-rule="evenodd" clip-rule="evenodd" d="M51.362 -2.45664e-05H46.7229L26.0183 10.354H30.6573L51.362 -2.45664e-05Z" fill="#C3283A"/>
<path fill-rule="evenodd" clip-rule="evenodd" d="M30.6573 20.708L51.3866 31.0726V28.7619L35.2823 20.708H30.6573Z" fill="#C3283A"/>
<path fill-rule="evenodd" clip-rule="evenodd" d="M17.2059 2.53674e-05V12.4284H0.678254C0.452476 13.4797 0.332642 14.5698 0.332642 15.6845V18.6373H7.14828H7.88209H9.46959H14.091H17.2059V19.3993V20.5564V31.2667H20.2999H23.4078V20.5564V20.1895V19.3993V18.6373H26.5122H31.1442H33.4549H51.3866V15.5364V12.4284H33.4549H32.7281H31.1442H26.5122H23.4078V11.6664V10.5093V2.53674e-05H17.2059" fill="#C3283A"/>
<path fill-rule="evenodd" clip-rule="evenodd" d="M62.4991 28.7479H65.8682L66.9195 25.5376L67.9602 28.7479H71.322L68.6022 30.7341L69.6393 33.9443L66.9195 31.9582L64.1748 33.9443L65.2261 30.7341L62.4991 28.7479" fill="#FEFEFE"/>
<path fill-rule="evenodd" clip-rule="evenodd" d="M63.9949 29.2418H66.2244L66.9195 27.1216L67.6038 29.2418H69.8263L68.0342 30.5506L68.7115 32.6814L66.9195 31.3655L65.1097 32.6814L65.7976 30.5506L63.9949 29.2418" fill="#C3283A"/>
<path fill-rule="evenodd" clip-rule="evenodd" d="M48.9878 42.3404H52.3603L53.4152 39.1231L54.4558 42.3404H57.8283L55.1049 44.316L56.1386 47.5262L53.4152 45.5436L50.6846 47.5262L51.7253 44.316L48.9878 42.3404" fill="#FEFEFE"/>
<path fill-rule="evenodd" clip-rule="evenodd" d="M50.4905 42.8237H52.7201L53.4151 40.7L54.0994 42.8237H56.3396L54.5263 44.1325L55.2213 46.2633L53.4151 44.9404L51.6017 46.2633L52.3003 44.1325L50.4905 42.8237" fill="#C3283A"/>
<path fill-rule="evenodd" clip-rule="evenodd" d="M74.5535 38.9714H77.5591L78.4905 36.1103L79.4182 38.9714H82.4134L79.9862 40.7211L80.9211 43.5857L78.4905 41.8253L76.0564 43.5857L76.9876 40.7211L74.5535 38.9714Z" fill="#FEFEFE"/>
<path fill-rule="evenodd" clip-rule="evenodd" d="M75.8871 39.3982H77.8803L78.4906 37.5108L79.1008 39.3982H81.094L79.4818 40.5694L80.0922 42.4568L78.4906 41.2926L76.8783 42.4568L77.4957 40.5694L75.8871 39.3982" fill="#C3283A"/>
<path fill-rule="evenodd" clip-rule="evenodd" d="M62.0087 63.6517H65.7517L66.9194 60.0851L68.073 63.6517H71.8231L68.7892 65.8565L69.9427 69.4231L66.9194 67.2218L63.889 69.4231L65.0391 65.8565L62.0087 63.6517" fill="#FEFEFE"/>
<path fill-rule="evenodd" clip-rule="evenodd" d="M63.6703 64.1949H66.1468L66.9194 61.8384L67.6813 64.1949H70.1578L68.1576 65.6554L68.9231 68.019L66.9194 66.555L64.912 68.019L65.6811 65.6554L63.6703 64.1949" fill="#C3283A"/>
</svg>
