<svg width="87" height="86" viewBox="0 0 87 86" fill="none" xmlns="http://www.w3.org/2000/svg">
<path fill-rule="evenodd" clip-rule="evenodd" d="M14.4518 85.9331H71.7782C79.7933 85.2522 86.1398 78.486 86.1398 70.305V15.628C86.1398 7.45061 79.7969 0.680808 71.7853 -5.29678e-05H14.4448C6.43672 0.680808 0.09375 7.45061 0.09375 15.628V70.305C0.09375 78.486 6.44022 85.2522 14.4518 85.9331" fill="#FEFEFE"/>
<path fill-rule="evenodd" clip-rule="evenodd" d="M86.1398 66.8303V70.3052C86.1398 72.4536 85.6989 74.5067 84.9086 76.3765H1.32144C0.531222 74.5067 0.09375 72.4536 0.09375 70.3052V66.8303H86.1398ZM86.1398 47.7309V57.2877H0.09375V47.7309H86.1398ZM86.1398 28.6421V38.1883H47.8528V28.6421H86.1398ZM47.8528 19.0889H86.1398V15.6281C86.1398 13.4762 85.6989 11.4195 84.9051 9.54269H47.8528V19.0889Z" fill="#4472B6"/>
<path fill-rule="evenodd" clip-rule="evenodd" d="M24.0403 23.9395L24.4566 30.9879C17.9478 35.6975 21.9695 38.4668 17.2563 39.9908C20.4384 36.8123 16.2898 36.8123 19.8775 29.6086L24.0403 23.9395" fill="#EDC806"/>
<path fill-rule="evenodd" clip-rule="evenodd" d="M24.1849 23.9396L24.5977 30.9881H24.3119L23.7651 23.9396H24.1849ZM24.5977 30.9881V31.1362L24.4566 30.9881H24.5977ZM24.5977 31.1362L24.3119 30.8575C20.8547 33.3481 20.3008 35.4225 19.8775 36.9465H20.3008C20.7136 35.56 21.1299 33.6233 24.5977 31.1362ZM20.3008 36.9465C19.8775 38.4669 19.6129 39.4371 17.3939 40.1285L17.2563 39.8498C19.3342 39.1584 19.6129 38.1918 19.8775 36.9465H20.3008ZM17.3939 40.1285L16.7025 40.4037L17.1223 39.9874H17.2563L17.3939 40.1285ZM17.1223 39.9874L17.3939 40.1285C18.9144 38.601 18.7839 37.6344 18.6428 36.5302H18.223C18.5052 37.6379 18.5052 38.4669 17.1223 39.9874ZM18.2265 36.5302C18.0854 35.1438 17.8102 33.3481 19.754 29.6087L20.0292 29.7463C18.2265 33.4822 18.3712 35.1438 18.6393 36.5302H18.2265" fill="#36383A"/>
<path fill-rule="evenodd" clip-rule="evenodd" d="M21.8248 29.3299L21.5497 29.1958C19.8775 32.1027 19.4718 34.4522 19.1931 36.1173L19.6129 36.2549C19.754 34.4522 20.1668 32.2368 21.8248 29.3299V29.3299ZM19.6129 36.2549C19.3342 38.0541 19.0555 39.437 17.3939 40.1284L17.2563 39.8497C18.7839 39.1583 18.9144 37.9059 19.1931 36.1173L19.6129 36.2549Z" fill="#36383A"/>
<path fill-rule="evenodd" clip-rule="evenodd" d="M24.0404 23.9395L23.4866 16.7392C29.9883 12.0367 25.9807 9.26035 30.6868 7.75047C27.6317 11.0666 31.6604 11.0701 28.055 18.1257L24.0404 23.9395Z" fill="#EDC806"/>
<path fill-rule="evenodd" clip-rule="evenodd" d="M23.7652 23.9395L23.356 16.8803L23.6276 16.7392L24.185 23.9395H23.7652ZM23.356 16.8803V16.7392H23.4865L23.356 16.8803ZM23.356 16.7392L23.6276 16.8803C27.0813 14.3933 27.6317 12.4459 28.055 10.9255L27.6317 10.7985C27.36 12.319 26.8061 14.2486 23.356 16.7392ZM27.6317 10.7949C28.055 9.40499 28.3266 8.29376 30.5456 7.60584L30.6867 7.881C28.6053 8.57245 28.3266 9.54613 28.055 10.929L27.6317 10.7949ZM30.5456 7.60229L31.2405 7.46824L30.8207 7.881L30.6867 7.75047L30.5456 7.60229ZM30.8207 7.881L30.5456 7.60584C29.0181 9.27095 29.1627 10.1 29.3003 11.3453L29.7201 11.2112C29.4343 10.1 29.4343 9.405 30.8207 7.881V7.881ZM29.7201 11.2112C29.8471 12.5906 30.1293 14.3933 28.189 18.2632L27.9174 18.1257C29.7201 14.3898 29.5719 12.5941 29.3003 11.3453L29.7201 11.2112Z" fill="#36383A"/>
<path fill-rule="evenodd" clip-rule="evenodd" d="M26.1147 18.3973L26.3934 18.5385C28.055 15.6386 28.4748 13.4161 28.7465 11.617H28.4748C28.189 13.2821 27.7763 15.4905 26.1147 18.3973ZM28.4748 11.617C28.7464 9.69081 28.8876 8.43492 30.5456 7.60589L30.6867 7.88105C29.1627 8.57249 29.0181 9.8284 28.7465 11.617H28.4748" fill="#36383A"/>
<path fill-rule="evenodd" clip-rule="evenodd" d="M24.0403 23.9395L16.8366 24.3523C12.1411 17.8506 9.36824 21.8617 7.84424 17.1591C11.1674 20.3377 11.0263 16.3231 18.2229 19.7873L24.0403 23.9395" fill="#EDC806"/>
<path fill-rule="evenodd" clip-rule="evenodd" d="M24.0403 24.0736L16.8366 24.6274V24.2112L23.9027 23.7878L24.0403 24.0736ZM16.8366 24.6274L16.7025 24.4934L16.8366 24.3523V24.6274ZM16.7025 24.4934L16.9777 24.3523C14.4941 20.7504 12.5539 20.3376 10.8958 19.9214V20.2036C12.4127 20.6163 14.353 21.0326 16.7025 24.4934V24.4934ZM10.8958 20.2036C9.50585 19.7838 8.39457 19.5157 7.71018 17.3002L7.98538 17.1556C8.68035 19.2264 9.63991 19.5157 10.8958 19.9214V20.2036ZM7.71018 17.3002L7.43506 16.7393L7.98538 17.1556H7.84427L7.71018 17.3002ZM7.98538 17.1556L7.71018 17.3002C9.36824 18.8207 10.1973 18.6796 11.4426 18.5385L11.305 18.2633C10.1973 18.4009 9.50585 18.5385 7.98538 17.1556V17.1556ZM11.305 18.2633C12.6844 17.9846 14.4941 17.7095 18.3712 19.6462L18.0854 19.9214C14.353 18.1257 12.6844 18.4009 11.4426 18.5385L11.305 18.2633Z" fill="#36383A"/>
<path fill-rule="evenodd" clip-rule="evenodd" d="M18.5052 21.8616L18.6393 21.5794C15.7359 19.7872 13.5204 19.3674 11.7177 19.0888V19.5156C13.3829 19.7872 15.5948 20.0589 18.5052 21.8616ZM11.7177 19.5156C9.781 19.2263 8.54276 18.9617 7.71021 17.3002L7.9854 17.1555C8.68037 18.6795 9.92211 18.9618 11.7177 19.0888V19.5156Z" fill="#36383A"/>
<path fill-rule="evenodd" clip-rule="evenodd" d="M24.0403 23.9395L31.1029 23.3856C35.7983 29.8837 38.5712 26.0103 40.0917 30.5787C36.7756 27.5272 36.9061 31.5489 29.72 27.947L24.0403 23.9395" fill="#EDC806"/>
<path fill-rule="evenodd" clip-rule="evenodd" d="M23.9027 23.7879L31.1029 23.2375V23.5233L24.0403 24.0736L23.9027 23.7879ZM31.1029 23.2375H31.2405L31.1029 23.3857V23.2375ZM31.2405 23.2375L30.9583 23.5233C33.4453 26.984 35.3927 27.5273 37.0508 27.9471V27.6755C35.5303 27.2557 33.59 26.7053 31.2405 23.2375ZM37.0508 27.6719C38.4337 27.9471 39.5484 28.2223 40.2328 30.5788H39.9612C39.2662 28.501 38.2961 28.2223 37.0508 27.9471V27.6719ZM40.2328 30.5788L40.508 31.1362L39.9612 30.72L40.0917 30.5788H40.2328ZM39.9612 30.72L40.2328 30.4342C38.5712 28.9208 37.7457 29.0548 36.4969 29.33L36.6345 29.6087C37.7422 29.4641 38.5713 29.33 39.9612 30.72ZM36.6345 29.6052C35.2516 29.7463 33.4454 30.0215 29.72 28.0918L29.847 27.8095C33.59 29.7463 35.248 29.464 36.4969 29.3335L36.6345 29.6052" fill="#36383A"/>
<path fill-rule="evenodd" clip-rule="evenodd" d="M29.4344 26.0103L29.3003 26.2925C32.2037 28.0917 34.5638 28.3633 36.2218 28.642L36.3558 28.3633C34.5637 28.0916 32.3448 27.6718 29.4344 26.0103ZM36.3558 28.3633C38.1621 28.642 39.4039 28.769 40.2329 30.5787L39.9613 30.7198C39.2663 29.0547 38.021 28.9207 36.2218 28.6455L36.3558 28.3633Z" fill="#36383A"/>
<path fill-rule="evenodd" clip-rule="evenodd" d="M24.0403 23.9395L19.3342 29.3299C11.305 27.947 12.1411 32.8013 7.84424 30.5788C12.4127 30.4341 9.50584 27.6754 16.9777 25.0437L24.0403 23.9395Z" fill="#EDC806"/>
<path fill-rule="evenodd" clip-rule="evenodd" d="M24.0403 23.9395L19.4718 29.3299L19.1931 29.1959L23.9027 23.7878L24.0403 23.9395ZM19.4718 29.3299L19.3342 29.464V29.3299H19.4718ZM19.3342 29.464V29.0548C15.0409 28.3633 13.2382 29.464 11.8553 30.3071L12.1411 30.5788C13.3828 29.7498 15.182 28.769 19.3342 29.464ZM12.1411 30.5788C10.8957 31.2773 9.9221 31.8206 7.71018 30.7199L7.84426 30.4341C9.92212 31.4078 10.7511 30.9915 11.8553 30.3071L12.1411 30.5788ZM7.71018 30.7199L7.15283 30.4341H7.84426V30.5788L7.71018 30.7199ZM7.84426 30.4341V30.7199C10.0527 30.7199 10.61 30.0214 11.305 29.0548L11.0263 28.769C10.3384 29.7497 9.92212 30.3071 7.84426 30.4341V30.4341ZM11.0263 28.769C11.8553 27.6719 12.9631 26.2925 16.9777 24.8991L17.1223 25.1777C13.1112 26.5642 11.9964 27.9471 11.305 29.0548L11.0263 28.769" fill="#36383A"/>
<path fill-rule="evenodd" clip-rule="evenodd" d="M18.6428 26.289L18.5052 26.0103C15.182 26.8429 13.3828 28.2223 11.9964 29.1959L12.141 29.464C13.5169 28.5045 15.3231 27.1145 18.6428 26.289V26.289ZM12.141 29.464C10.61 30.5788 9.63988 31.4078 7.84424 30.7199V30.4342C9.50582 30.988 10.4724 30.3072 11.9964 29.1959L12.141 29.464Z" fill="#36383A"/>
<path fill-rule="evenodd" clip-rule="evenodd" d="M24.0403 23.9395L28.6052 18.5384C36.6345 19.7837 35.7984 14.9401 40.0917 17.1591C35.5338 17.3002 38.4336 20.2035 30.9582 22.6906L24.0403 23.9395" fill="#EDC806"/>
<path fill-rule="evenodd" clip-rule="evenodd" d="M23.9027 23.7878L28.4747 18.3973L28.7464 18.6795L24.0403 23.9395L23.9027 23.7878ZM28.4747 18.3973H28.6053V18.5384L28.4747 18.3973ZM28.6053 18.3973V18.6795C32.8986 19.3674 34.7012 18.3973 36.0771 17.5683L35.7984 17.3002C34.5637 17.9846 32.7575 19.0887 28.6053 18.3973V18.3973ZM35.7984 17.3002C37.1919 16.4676 38.0209 16.0513 40.2328 17.0215L40.0917 17.3002C38.0209 16.323 37.1918 16.8803 36.0771 17.5683L35.7984 17.3002ZM40.2328 17.0215L40.7902 17.3002L40.0917 17.4272V17.1555L40.2328 17.0215ZM40.0917 17.4272V17.0215C37.8868 17.159 37.467 17.8505 36.6345 18.8206L36.9061 18.9617C37.6081 18.1257 38.0209 17.4272 40.0917 17.4272ZM36.9061 18.9617C36.0771 20.0589 34.9799 21.4453 30.9583 22.8317L30.8207 22.553C34.8353 21.3007 35.9501 19.7872 36.6345 18.8206L36.9061 18.9617" fill="#36383A"/>
<path fill-rule="evenodd" clip-rule="evenodd" d="M29.3003 21.4453L29.4344 21.8616C32.7575 21.0325 34.5637 19.6461 35.9502 18.5384L35.7985 18.2632C34.4227 19.3674 32.6199 20.7503 29.3003 21.4453ZM35.7985 18.2632C37.3331 17.1555 38.4337 16.4676 40.0918 17.0215V17.3002C38.4337 16.7392 37.4671 17.5683 35.9502 18.5384L35.7985 18.2632Z" fill="#36383A"/>
<path fill-rule="evenodd" clip-rule="evenodd" d="M24.0403 23.9395L18.6428 19.2263C19.8775 11.2112 15.0409 12.0402 17.2563 7.75047C17.3939 12.3189 20.3009 9.41204 22.7985 16.8803L24.0403 23.9395Z" fill="#EDC806"/>
<path fill-rule="evenodd" clip-rule="evenodd" d="M23.9027 24.0736L18.5052 19.3675L18.7839 19.0889L24.0403 23.7879L23.9027 24.0736ZM18.5052 19.3675V19.2264H18.6428L18.5052 19.3675ZM18.5052 19.2264L18.7804 19.23C19.4719 14.9402 18.3712 13.2786 17.6727 11.8957L17.394 12.0404C18.0854 13.2822 19.0556 15.0813 18.5052 19.2264V19.2264ZM17.394 12.0368C16.5649 10.795 16.0111 9.82844 17.1224 7.75057L17.394 7.88111C16.4238 9.82491 16.9777 10.6575 17.6727 11.8993L17.394 12.0368ZM17.1224 7.75057L17.394 7.19319V7.75057H17.1224ZM17.394 7.75057H17.1224C17.2564 9.96249 17.9478 10.5093 18.9144 11.2113L19.0555 10.9291C18.0854 10.2412 17.5351 9.82491 17.394 7.75057ZM19.0555 10.9256C20.1668 11.7581 21.5497 12.8694 22.9291 16.8805L22.6539 17.0216C21.271 13.0034 19.8775 12.0404 18.9144 11.2113L19.0555 10.9256" fill="#36383A"/>
<path fill-rule="evenodd" clip-rule="evenodd" d="M21.5532 18.5385H21.9695C21.1299 15.0812 19.7541 13.2785 18.6428 11.8957L18.3712 12.0403C19.4719 13.4161 20.8547 15.2188 21.5532 18.5385V18.5385ZM18.3712 12.0368C17.2564 10.5092 16.565 9.54615 17.1224 7.75051H17.394C16.8366 9.40504 17.5351 10.3823 18.6393 11.8992L18.3712 12.0368Z" fill="#36383A"/>
<path fill-rule="evenodd" clip-rule="evenodd" d="M24.0403 23.9395L29.3002 28.5009C28.0549 36.5301 32.8985 35.6975 30.6866 39.9908C30.5455 35.56 27.6315 38.4668 25.155 30.8574L24.0403 23.9395" fill="#EDC806"/>
<path fill-rule="evenodd" clip-rule="evenodd" d="M24.0403 23.7879L29.4343 28.3634L29.3002 28.6421L23.9027 24.0736L24.0403 23.7879ZM29.4343 28.3634L29.5719 28.501L29.4343 28.6421L29.3002 28.501L29.4343 28.3634ZM29.4343 28.6421L29.1626 28.5045C28.4747 32.8013 29.5719 34.5899 30.2633 35.9763L30.5455 35.8387C29.847 34.4523 28.8875 32.8013 29.4343 28.6421ZM30.5455 35.8352C31.3781 37.0841 31.9319 38.0542 30.8207 40.1285L30.5455 39.9874C31.5157 38.0542 30.9583 37.084 30.2633 35.9799L30.5455 35.8352ZM30.8207 40.1285L30.5455 40.6824V39.9874H30.6867L30.8207 40.1285ZM30.5455 39.9874L30.8207 39.9909C30.6866 37.772 29.9881 37.3557 29.018 36.6642L28.8875 36.8124C29.847 37.4968 30.4044 38.0542 30.5455 39.9874ZM28.8875 36.8124C27.7762 36.1174 26.3933 35.0027 25.0104 30.8575L25.2856 30.854C26.6685 34.724 28.0549 35.8387 29.018 36.6678L28.8875 36.8124" fill="#36383A"/>
<path fill-rule="evenodd" clip-rule="evenodd" d="M26.3934 29.1958L26.1147 29.3334C26.8062 32.6566 28.189 34.4522 29.3003 35.9762L29.572 35.6975C28.4748 34.3146 27.2259 32.519 26.3934 29.1958ZM29.572 35.6975C30.6867 37.2251 31.3781 38.3328 30.8207 40.1284L30.5456 39.9873C31.103 38.3293 30.4045 37.3556 29.3003 35.9797L29.572 35.6975" fill="#36383A"/>
<path fill-rule="evenodd" clip-rule="evenodd" d="M24.0403 23.9395H27.0848L24.0403 41.3702L20.8547 23.9395H24.0403V41.3702V23.9395Z" fill="#EDC806"/>
<path fill-rule="evenodd" clip-rule="evenodd" d="M24.0404 23.7879V24.0736H27.0849V23.7879H24.0404ZM27.0849 23.7879H27.36V23.9396H27.0849V23.7879ZM27.36 23.9396H26.9473L23.7652 41.3703H24.185L27.36 23.9396ZM24.185 41.3703H23.7652L24.0404 42.2064L24.185 41.3703ZM23.7652 41.3703H24.185L20.9959 23.9396H20.5867L23.7652 41.3703ZM20.5867 23.7879H20.8548V23.9396H20.5867V23.7879ZM20.8548 23.7879V24.0736H24.0404V23.7879H20.8548ZM24.0404 23.7879V23.9396H24.185V23.7879H24.0404ZM24.185 41.3703H23.7652V23.9396H24.185V41.3703Z" fill="#36383A"/>
<path fill-rule="evenodd" clip-rule="evenodd" d="M24.0403 23.9395H20.8547L24.0403 6.36054L27.0848 23.9395H24.0403V6.36054V23.9395Z" fill="#EDC806"/>
<path fill-rule="evenodd" clip-rule="evenodd" d="M24.0404 24.0736V23.7879H20.8548V24.0736H24.0404ZM20.8548 24.0736H20.5867V23.9396H20.8548V24.0736ZM20.5867 23.9396H20.9959L24.185 6.50176L23.7652 6.36065L20.5867 23.9396ZM23.7652 6.36065H24.185L24.0404 5.52807L23.7652 6.36065ZM24.185 6.36065L23.7652 6.50176L26.9473 23.9396H27.36L24.185 6.36065ZM27.36 24.0736H27.0849V23.9396H27.36V24.0736ZM27.0849 24.0736V23.7879H24.0404V24.0736H27.0849ZM24.0404 24.0736V23.9396H23.7652V24.0736H24.0404ZM23.7652 6.36065H24.185V23.9396H23.7652V6.36065Z" fill="#36383A"/>
<path fill-rule="evenodd" clip-rule="evenodd" d="M24.0404 23.9395V27.1145L6.46143 23.9395L24.0404 20.7504V23.9395H6.46143H24.0404Z" fill="#EDC806"/>
<path fill-rule="evenodd" clip-rule="evenodd" d="M24.185 27.1145V23.9395H23.7651V27.1145H24.185ZM24.185 27.1145V27.2556H23.9027L24.0403 27.1145H24.185ZM23.9027 27.2556L24.0403 26.984L6.60251 23.7878L6.4614 24.0736L23.9027 27.2556ZM6.4614 24.0736V23.7878L5.62183 23.9395L6.4614 24.0736ZM6.4614 23.7878L6.60251 24.0736L24.0403 20.8915L23.9027 20.6163L6.4614 23.7878ZM23.9027 20.6163L24.185 20.4752V20.7504H24.0403L23.9027 20.6163ZM24.185 23.9395V20.7504H23.7651V23.9395H24.185ZM24.185 24.0736V23.9395H24.0403V24.0736H24.185ZM24.0403 24.0736H6.4614V23.7878H24.0403V24.0736Z" fill="#36383A"/>
<path fill-rule="evenodd" clip-rule="evenodd" d="M24.0403 23.9395V20.7504L41.4781 23.9395L24.0403 27.1145V23.9395H41.4781H24.0403Z" fill="#EDC806"/>
<path fill-rule="evenodd" clip-rule="evenodd" d="M23.7651 20.7504V23.9395H24.185V20.7504H23.7651ZM23.7651 20.7504V20.4752L24.0403 20.6163V20.7504H23.7651ZM24.0403 20.6163L23.9027 20.8915L41.3406 24.0736L41.4782 23.7878L24.0403 20.6163ZM41.4782 23.7878V24.0736L42.3177 23.9395L41.4782 23.7878ZM41.4782 24.0736L41.3406 23.7878L23.9027 26.984L24.0403 27.2556L41.4782 24.0736ZM24.0403 27.2556H23.7651V27.1145H24.0403V27.2556ZM23.7651 23.9395V27.1145H24.185V23.9395H23.7651ZM23.7651 23.7878V23.9395H24.0403V23.7878H23.7651ZM24.0403 23.7878H41.4782V24.0736H24.0403V23.7878Z" fill="#36383A"/>
<path fill-rule="evenodd" clip-rule="evenodd" d="M24.0403 23.9395L26.2558 26.1515L11.5837 36.255L21.6873 21.5794L24.0403 23.9395L11.5837 36.255L24.0403 23.9395Z" fill="#EDC806"/>
<path fill-rule="evenodd" clip-rule="evenodd" d="M24.0404 23.7878L23.9028 24.0736L26.1147 26.289L26.3934 26.0103L24.0404 23.7878ZM26.3934 26.0103L26.5274 26.1514L26.2558 26.289V26.1514L26.3934 26.0103ZM26.2558 26.289L26.1147 26.0103L11.5838 36.1174L11.7178 36.389L26.2558 26.289ZM11.7178 36.389L11.5838 36.255L11.4427 36.1174L11.0264 36.9464L11.7178 36.389ZM11.4427 36.1174L11.7178 36.389L21.8249 21.717L21.5533 21.5794L11.4427 36.1174ZM21.5533 21.5794L21.6874 21.4454L21.8249 21.5794H21.5533ZM21.8249 21.5794L21.5533 21.717L23.9028 24.0736L24.0404 23.7878L21.8249 21.5794ZM24.0404 23.7878V24.0736L24.185 23.9395L24.0404 23.7878ZM24.0404 24.0736L11.7178 36.389L11.5838 36.1174L23.9028 23.7878L24.0404 24.0736" fill="#36383A"/>
<path fill-rule="evenodd" clip-rule="evenodd" d="M24.0403 23.9396L21.6873 21.5795L36.3557 11.49L26.2557 26.1515L24.0403 23.9396L36.3557 11.49L24.0403 23.9396Z" fill="#EDC806"/>
<path fill-rule="evenodd" clip-rule="evenodd" d="M23.9027 24.0735L24.0403 23.7878L21.8248 21.5794L21.5532 21.7169L23.9027 24.0735ZM21.5532 21.7169V21.5794H21.6873L21.5532 21.7169ZM21.6873 21.5794L21.8248 21.7169L36.3558 11.6169L36.2218 11.3453L21.6873 21.5794ZM36.2218 11.3453L36.3558 11.4899L36.4969 11.6169L36.9061 10.9255L36.2218 11.3453ZM36.4969 11.6169L36.2218 11.4899L26.1147 26.0103L26.3933 26.2889L36.4969 11.6169ZM26.3933 26.2889L26.2558 26.4336L26.1147 26.2889L26.2558 26.1514L26.3933 26.2889ZM26.1147 26.2889L26.3933 26.0103L24.0403 23.7878L23.9027 24.0735L26.1147 26.2889ZM23.9027 24.0735L24.0403 23.9394L23.9027 23.7878L23.7651 23.9394L23.9027 24.0735ZM23.9027 23.7878L36.2218 11.4899L36.4969 11.6169L24.0403 24.0735L23.9027 23.7878Z" fill="#36383A"/>
<path fill-rule="evenodd" clip-rule="evenodd" d="M24.0403 23.9396L21.6873 26.1515L11.5837 11.49L26.2558 21.5795L24.0403 23.9396L11.5837 11.49L24.0403 23.9396Z" fill="#EDC806"/>
<path fill-rule="evenodd" clip-rule="evenodd" d="M24.0404 24.0735L23.9028 23.7878L21.5533 26.0103L21.8249 26.2889L24.0404 24.0735ZM21.8249 26.2889L21.6874 26.4336L21.5533 26.2889L21.6874 26.1514L21.8249 26.2889ZM21.5533 26.2889L21.8249 26.0103L11.7178 11.4899L11.4427 11.6169L21.5533 26.2889ZM11.4427 11.6169L11.5838 11.4899L11.7178 11.3453L11.0264 10.9255L11.4427 11.6169ZM11.7178 11.3453L11.5838 11.6169L26.1147 21.7169L26.2558 21.5794L11.7178 11.3453ZM26.2558 21.5794H26.5274L26.3934 21.7169L26.2558 21.5794ZM26.3934 21.7169L26.1147 21.5794L23.9028 23.7878L24.0404 24.0735L26.3934 21.7169ZM24.0404 24.0735V23.9394L23.9028 24.0735H24.0404ZM23.9028 24.0735L11.5838 11.6169L11.7178 11.4899L24.0404 23.7878L23.9028 24.0735" fill="#36383A"/>
<path fill-rule="evenodd" clip-rule="evenodd" d="M24.0403 23.9395L26.2557 21.5794L36.3557 36.255L21.6873 26.1515L24.0403 23.9395L36.3557 36.255L24.0403 23.9395Z" fill="#EDC806"/>
<path fill-rule="evenodd" clip-rule="evenodd" d="M23.9027 23.7878L24.0403 24.0736L26.3933 21.717L26.1147 21.5794L23.9027 23.7878ZM26.1147 21.5794L26.2558 21.4454L26.3933 21.5794H26.1147ZM26.3933 21.5794L26.1147 21.717L36.2218 36.389L36.4969 36.1174L26.3933 21.5794ZM36.4969 36.1174L36.3558 36.255L36.2218 36.389L36.9061 36.9464L36.4969 36.1174ZM36.2218 36.389L36.3558 36.1174L21.8248 26.0103L21.6873 26.289L36.2218 36.389ZM21.6873 26.289L21.5532 26.1514V26.0103L21.6873 26.1514V26.289ZM21.5532 26.0103L21.8248 26.289L24.0403 24.0736L23.9027 23.7878L21.5532 26.0103ZM23.9027 23.7878L24.0403 23.9395V23.6573L23.9027 23.7878ZM24.0403 23.7878L36.4969 36.1174L36.2218 36.389L23.9027 24.0736L24.0403 23.7878Z" fill="#36383A"/>
<path fill-rule="evenodd" clip-rule="evenodd" d="M29.8471 23.9395C29.8471 20.6163 27.2189 18.1257 24.0404 18.1257C20.7137 18.1257 18.0854 20.6163 18.0854 23.943C18.0854 27.1145 20.7137 29.7498 24.0404 29.7498C27.2189 29.7462 29.8471 27.1145 29.8471 23.9395Z" fill="#EDC806"/>
<path fill-rule="evenodd" clip-rule="evenodd" d="M29.5719 23.9395L29.9881 23.943C29.9881 22.285 29.3002 20.7504 28.189 19.6462L27.9174 19.9214C29.018 20.8915 29.5719 22.2815 29.5719 23.9395ZM27.9174 19.9214C26.9472 18.8207 25.5678 18.2633 24.0403 18.2633V17.8505C25.5678 17.8505 27.0813 18.5385 28.189 19.6462L27.9174 19.9214ZM24.0403 18.2633V17.8505C22.3717 17.8505 20.8547 18.5385 19.7541 19.6462L20.0293 19.9214C20.9923 18.8207 22.3717 18.2633 24.0403 18.2633V18.2633ZM20.0293 19.9214C18.9145 20.8915 18.3712 22.285 18.3712 23.943L17.9479 23.9395C17.9479 22.2815 18.6393 20.7504 19.7541 19.6462L20.0293 19.9214ZM18.3712 23.9395L17.9479 23.943C17.9479 25.6011 18.6428 26.984 19.7541 28.0882L20.0293 27.9471C18.9145 26.8429 18.3712 25.4565 18.3712 23.9395ZM20.0293 27.9471C20.9959 28.9172 22.3717 29.6087 24.0403 29.6087V29.8838C22.3717 29.8838 20.8547 29.1959 19.7541 28.0917L20.0293 27.9471ZM24.0403 29.6051V29.8873C25.5678 29.8873 27.0848 29.1959 28.189 28.0882L27.9174 27.9471C26.9472 28.9207 25.5678 29.6051 24.0403 29.6051V29.6051ZM27.9174 27.9471C29.018 26.8429 29.5719 25.4564 29.5719 23.943L29.9881 23.9395C29.9881 25.6011 29.3002 26.984 28.189 28.0917L27.9174 27.9471Z" fill="#36383A"/>
<path fill-rule="evenodd" clip-rule="evenodd" d="M28.189 21.5795C27.9174 21.9957 27.6316 21.3008 26.3934 21.3008C25.0105 21.3008 24.8694 21.9993 24.5978 21.8617C24.4567 21.717 25.6984 20.7504 26.1147 20.7504C26.5275 20.6164 27.7763 21.0327 28.189 21.5795" fill="#36383A"/>
<path fill-rule="evenodd" clip-rule="evenodd" d="M26.6686 21.9957C27.0849 22.4155 26.8061 23.114 26.3934 23.114C25.9806 23.1105 25.2857 22.4155 25.6984 21.9992L26.6686 21.9957Z" fill="#36383A"/>
<path fill-rule="evenodd" clip-rule="evenodd" d="M25.0105 22.5531C25.0105 21.8617 25.5679 21.717 26.3934 21.717C27.2189 21.717 27.6317 22.4155 27.9174 22.5531C27.6317 22.5531 27.2189 21.9992 26.3934 21.9992C25.5679 21.9957 25.5679 21.9992 25.0105 22.5531Z" fill="#36383A"/>
<path fill-rule="evenodd" clip-rule="evenodd" d="M25.1551 22.6906C25.2856 22.4154 25.5679 22.9693 26.2558 22.9693C26.8061 22.9693 27.0813 22.8317 27.5046 22.5531C27.7762 22.2814 26.9472 23.241 26.3933 23.241C25.8465 23.2374 25.0105 22.8317 25.1551 22.6906" fill="#36383A"/>
<path fill-rule="evenodd" clip-rule="evenodd" d="M26.9473 22.9694C27.6317 22.6907 27.2189 22.1333 26.9473 21.9992C27.0848 22.1333 27.5047 22.6907 26.9473 22.9694Z" fill="#36383A"/>
<path fill-rule="evenodd" clip-rule="evenodd" d="M24.0403 26.1514C24.312 26.1514 24.4566 26.0103 24.8694 26.0103C25.2856 26.0103 26.2558 26.7088 26.8061 26.4372C25.5679 26.984 26.1147 26.5642 24.0403 26.5642H23.7651L24.0403 26.1514Z" fill="#36383A"/>
<path fill-rule="evenodd" clip-rule="evenodd" d="M27.0848 26.984C26.8061 26.5642 26.9472 26.7089 26.3933 26.0104C26.9472 26.4337 26.9472 26.5642 27.0848 26.984Z" fill="#36383A"/>
<path fill-rule="evenodd" clip-rule="evenodd" d="M24.0403 27.3932C25.2856 27.3932 25.1551 27.1145 26.8061 26.4372C25.5679 26.5642 25.2856 26.984 24.0403 26.984H23.7651L24.0403 27.3932Z" fill="#36383A"/>
<path fill-rule="evenodd" clip-rule="evenodd" d="M24.0403 25.4564C24.3119 25.4564 24.4566 25.1777 24.8693 25.1777C25.2856 25.1777 25.843 25.3224 26.1146 25.6011C26.2558 25.6011 25.9806 25.1777 25.5678 25.1777C25.1551 25.0437 25.2856 24.3523 24.8693 24.2112C24.8693 24.4934 25.0104 24.4969 25.0104 24.772C25.0104 25.0437 24.5977 25.0437 24.4566 24.772C24.5977 25.1777 24.1849 25.1777 24.0403 25.1777V25.4564Z" fill="#36383A"/>
<path fill-rule="evenodd" clip-rule="evenodd" d="M19.7542 21.5795C20.0293 21.9957 20.301 21.3008 21.5498 21.3008C22.9292 21.3008 23.0702 21.9993 23.356 21.8617C23.4865 21.717 22.2447 20.7504 21.8249 20.7504C21.4122 20.6164 20.1669 21.0327 19.7542 21.5795Z" fill="#36383A"/>
<path fill-rule="evenodd" clip-rule="evenodd" d="M21.271 21.9957C20.8547 22.4155 21.1299 23.114 21.5497 23.114C21.9695 23.1105 22.6539 22.4155 22.2447 21.9992L21.271 21.9957" fill="#36383A"/>
<path fill-rule="evenodd" clip-rule="evenodd" d="M22.9291 22.5531C22.9291 21.8617 22.3717 21.717 21.5498 21.717C20.7137 21.717 20.3009 22.4155 20.0293 22.5531C20.4385 22.5531 20.7137 21.9992 21.5498 21.9992C22.3717 21.9957 22.3717 21.9992 22.9291 22.5531Z" fill="#36383A"/>
<path fill-rule="evenodd" clip-rule="evenodd" d="M22.7985 22.6906C22.6539 22.4154 22.3716 22.9693 21.6872 22.9693C21.1299 22.9693 20.8547 22.8317 20.4384 22.5531C20.1668 22.2814 20.9923 23.241 21.5496 23.241C22.2446 23.2374 22.929 22.8317 22.7985 22.6906Z" fill="#36383A"/>
<path fill-rule="evenodd" clip-rule="evenodd" d="M20.9958 22.9694C20.3008 22.6907 20.7136 22.1333 20.9923 21.9992C20.8547 22.1333 20.4384 22.6907 20.9958 22.9694Z" fill="#36383A"/>
<path fill-rule="evenodd" clip-rule="evenodd" d="M24.0403 26.1514C23.6275 26.1514 23.4864 26.0103 23.0702 26.0103C22.6539 26.0103 21.6873 26.7088 21.1299 26.4372C22.3717 26.984 21.8249 26.5642 24.0403 26.5642H24.1849L24.0403 26.1514Z" fill="#36383A"/>
<path fill-rule="evenodd" clip-rule="evenodd" d="M20.8547 26.984C21.1299 26.5642 21.1299 26.7089 21.5497 26.0104C21.1299 26.4337 20.9923 26.5642 20.8547 26.984Z" fill="#36383A"/>
<path fill-rule="evenodd" clip-rule="evenodd" d="M24.0403 27.3932C22.6539 27.3932 22.929 27.1145 21.1299 26.4372C22.3717 26.5642 22.6539 26.984 24.0403 26.984H24.1849L24.0403 27.3932Z" fill="#36383A"/>
<path fill-rule="evenodd" clip-rule="evenodd" d="M24.0403 25.4564C23.6275 25.4564 23.4864 25.1777 23.0702 25.1777C22.6539 25.1777 22.0965 25.3224 21.8248 25.6011C21.6872 25.6011 21.9695 25.1777 22.3716 25.1777C22.7985 25.0437 22.6539 24.3523 23.0702 24.2112C23.0702 24.4934 22.929 24.4969 22.929 24.772C22.929 25.0437 23.3559 25.0437 23.4865 24.772C23.3559 25.1777 23.7616 25.1777 24.0403 25.1777V25.4564Z" fill="#36383A"/>
<path fill-rule="evenodd" clip-rule="evenodd" d="M24.0403 27.947C23.7652 27.947 23.0702 28.0917 24.0403 28.0917C24.8694 28.0881 24.185 27.947 24.0403 27.947Z" fill="#36383A"/>
</svg>
