<svg width="87" height="86" viewBox="0 0 87 86" fill="none" xmlns="http://www.w3.org/2000/svg">
<path fill-rule="evenodd" clip-rule="evenodd" d="M14.544 85.926H71.8845C76.6152 85.5274 80.7639 83.0015 83.3674 79.315H3.06104C5.66454 83.0015 9.8132 85.5274 14.544 85.926Z" fill="#D0272C"/>
<path fill-rule="evenodd" clip-rule="evenodd" d="M3.06109 79.3151H83.3674C84.7327 77.3854 85.6746 75.1417 86.0521 72.7111H0.376465C0.757465 75.1417 1.69584 77.3854 3.06109 79.3151Z" fill="#FEFEFE"/>
<path fill-rule="evenodd" clip-rule="evenodd" d="M0.376453 72.7111H86.0521C86.1755 71.9244 86.2391 71.12 86.2391 70.3016V66.1071H0.189453V70.3016C0.189453 71.12 0.256508 71.9244 0.376453 72.7111" fill="#D0272C"/>
<path fill-rule="evenodd" clip-rule="evenodd" d="M0.189453 66.1071H86.2391V59.4995H0.189453V66.1071Z" fill="#FEFEFE"/>
<path fill-rule="evenodd" clip-rule="evenodd" d="M0.189453 59.4995H86.2391V52.8849H0.189453V59.4995Z" fill="#D0272C"/>
<path fill-rule="evenodd" clip-rule="evenodd" d="M0.189453 52.8849H86.2391V46.2774H0.189453V52.8849Z" fill="#FEFEFE"/>
<path fill-rule="evenodd" clip-rule="evenodd" d="M0.189453 46.2773H86.2391V39.6557H0.189453V46.2773Z" fill="#D0272C"/>
<path fill-rule="evenodd" clip-rule="evenodd" d="M0.189453 39.6558H86.2391V33.0553H0.189453V39.6558Z" fill="#FEFEFE"/>
<path fill-rule="evenodd" clip-rule="evenodd" d="M0.189453 33.0553H86.2391V26.4478H0.189453V33.0553Z" fill="#D0272C"/>
<path fill-rule="evenodd" clip-rule="evenodd" d="M0.189453 26.4478H86.2391V19.8332H0.189453V26.4478Z" fill="#FEFEFE"/>
<path fill-rule="evenodd" clip-rule="evenodd" d="M0.189453 19.8331H86.2391V15.6245C86.2391 14.8096 86.1755 14.0088 86.0521 13.2221H0.376453C0.252981 14.0088 0.189453 14.8096 0.189453 15.6245V19.8331" fill="#D0272C"/>
<path fill-rule="evenodd" clip-rule="evenodd" d="M0.376465 13.222H86.0521C85.6746 10.7949 84.7362 8.54422 83.371 6.61452H3.05758C1.69233 8.54422 0.753937 10.7949 0.376465 13.222Z" fill="#FEFEFE"/>
<path fill-rule="evenodd" clip-rule="evenodd" d="M3.05762 6.61462H83.371C80.7675 2.9281 76.6153 0.402207 71.8846 4.02462e-05H14.544C9.8133 0.402207 5.66112 2.9281 3.05762 6.61462Z" fill="#D0272C"/>
<path fill-rule="evenodd" clip-rule="evenodd" d="M0.189453 46.2773H36.8289V-4.13546e-05H14.544C6.53594 0.68082 0.189453 7.44709 0.189453 15.6245V46.2773" fill="#2E3C66"/>
<path fill-rule="evenodd" clip-rule="evenodd" d="M2.6695 9.16863L3.23395 10.9219H5.0719L3.58672 12.005L4.14407 13.7477L2.6695 12.6752L1.18783 13.7477L1.74518 12.005L0.796265 11.3135C0.83507 11.183 0.873821 11.0525 0.916154 10.9219H2.09445L2.6695 9.16863" fill="#FEFEFE"/>
<path fill-rule="evenodd" clip-rule="evenodd" d="M2.66951 16.8981L3.23395 18.6408H5.07191L3.58673 19.7238L4.14408 21.4701L2.66951 20.4012L1.18784 21.4701L1.74519 19.7238L0.26001 18.6408H2.09445L2.66951 16.8981Z" fill="#FEFEFE"/>
<path fill-rule="evenodd" clip-rule="evenodd" d="M2.66951 24.6239L3.23395 26.3667H5.07191L3.58673 27.4497L4.14408 29.1995L2.66951 28.1164L1.18784 29.1995L1.74519 27.4497L0.26001 26.3667H2.09445L2.66951 24.6239Z" fill="#FEFEFE"/>
<path fill-rule="evenodd" clip-rule="evenodd" d="M2.66951 32.3462L3.23395 34.0925H5.07191L3.58673 35.172L4.14408 36.9147L2.66951 35.8316L1.18784 36.9147L1.74519 35.172L0.26001 34.0925H2.09445L2.66951 32.3462Z" fill="#FEFEFE"/>
<path fill-rule="evenodd" clip-rule="evenodd" d="M8.10226 5.0976L8.68083 6.85442H10.5153L9.03002 7.93393L9.60508 9.68018L8.10226 8.6042L6.62762 9.68018L7.18504 7.93393L5.70337 6.85442H7.5343L8.10226 5.0976" fill="#FEFEFE"/>
<path fill-rule="evenodd" clip-rule="evenodd" d="M8.10226 12.8305L8.68083 14.5767H10.5153L9.03002 15.6527L9.60508 17.406L8.10226 16.323L6.62762 17.406L7.18504 15.6527L5.70337 14.5767H7.5343L8.10226 12.8305" fill="#FEFEFE"/>
<path fill-rule="evenodd" clip-rule="evenodd" d="M8.10226 20.5528L8.68083 22.2955H10.5153L9.03002 23.375L9.60508 25.1318L8.10226 24.0488L6.62762 25.1318L7.18504 23.375L5.70337 22.2955H7.5343L8.10226 20.5528" fill="#FEFEFE"/>
<path fill-rule="evenodd" clip-rule="evenodd" d="M8.10226 28.2717L8.68083 30.025H10.5153L9.03002 31.1045L9.60508 32.8507L8.10226 31.7712L6.62762 32.8507L7.18504 31.1045L5.70337 30.025H7.5343L8.10226 28.2717" fill="#FEFEFE"/>
<path fill-rule="evenodd" clip-rule="evenodd" d="M8.10226 35.9939L8.68083 37.7543H10.5153L9.03002 38.8267L9.60508 40.5695L8.10226 39.4935L6.62762 40.5695L7.18504 38.8267L5.70337 37.7543H7.5343L8.10226 35.9939" fill="#FEFEFE"/>
<path fill-rule="evenodd" clip-rule="evenodd" d="M13.4892 9.16863L14.0537 10.9219H15.9057L14.4135 12.005L14.9815 13.7477L13.4892 12.6752L12.004 13.7477L12.5791 12.005L11.0903 10.9219H12.9283L13.4892 9.16863Z" fill="#FEFEFE"/>
<path fill-rule="evenodd" clip-rule="evenodd" d="M13.4892 16.8981L14.0537 18.6408H15.9057L14.4135 19.7238L14.9815 21.4701L13.4892 20.4012L12.004 21.4701L12.5791 19.7238L11.0903 18.6408H12.9283L13.4892 16.8981Z" fill="#FEFEFE"/>
<path fill-rule="evenodd" clip-rule="evenodd" d="M13.4892 24.6239L14.0537 26.3667H15.9057L14.4135 27.4497L14.9815 29.1995L13.4892 28.1164L12.004 29.1995L12.5791 27.4497L11.0903 26.3667H12.9283L13.4892 24.6239Z" fill="#FEFEFE"/>
<path fill-rule="evenodd" clip-rule="evenodd" d="M13.4892 32.3462L14.0537 34.0925H15.9057L14.4135 35.172L14.9815 36.9147L13.4892 35.8316L12.004 36.9147L12.5791 35.172L11.0903 34.0925H12.9283L13.4892 32.3462Z" fill="#FEFEFE"/>
<path fill-rule="evenodd" clip-rule="evenodd" d="M18.9397 5.0976L19.5147 6.85442H21.3492L19.864 7.93393L20.4248 9.68018L18.9397 8.6042L17.4651 9.68018L18.0224 7.93393L16.5408 6.85442H18.3752L18.9397 5.0976" fill="#FEFEFE"/>
<path fill-rule="evenodd" clip-rule="evenodd" d="M18.9397 12.8305L19.5147 14.5767H21.3492L19.864 15.6527L20.4248 17.406L18.9397 16.323L17.4651 17.406L18.0224 15.6527L16.5408 14.5767H18.3752L18.9397 12.8305" fill="#FEFEFE"/>
<path fill-rule="evenodd" clip-rule="evenodd" d="M18.9397 20.5528L19.5147 22.2955H21.3492L19.864 23.375L20.4248 25.1318L18.9397 24.0488L17.4651 25.1318L18.0224 23.375L16.5408 22.2955H18.3752L18.9397 20.5528" fill="#FEFEFE"/>
<path fill-rule="evenodd" clip-rule="evenodd" d="M18.9397 28.2717L19.5147 30.025H21.3492L19.864 31.1045L20.4248 32.8507L18.9397 31.7712L17.4651 32.8507L18.0224 31.1045L16.5408 30.025H18.3752L18.9397 28.2717" fill="#FEFEFE"/>
<path fill-rule="evenodd" clip-rule="evenodd" d="M18.9397 35.9939L19.5147 37.7543H21.3492L19.864 38.8267L20.4248 40.5695L18.9397 39.4935L17.4651 40.5695L18.0224 38.8267L16.5408 37.7543H18.3752L18.9397 35.9939" fill="#FEFEFE"/>
<path fill-rule="evenodd" clip-rule="evenodd" d="M24.323 9.16863L24.8839 10.9219H26.7254L25.2543 12.005L25.8011 13.7477L24.323 12.6752L22.8237 13.7477L23.3987 12.005L21.9241 10.9219H23.748L24.323 9.16863Z" fill="#FEFEFE"/>
<path fill-rule="evenodd" clip-rule="evenodd" d="M24.323 16.8981L24.8839 18.6408H26.7254L25.2543 19.7238L25.8011 21.4701L24.323 20.4012L22.8237 21.4701L23.3987 19.7238L21.9241 18.6408H23.748L24.323 16.8981Z" fill="#FEFEFE"/>
<path fill-rule="evenodd" clip-rule="evenodd" d="M24.323 24.6239L24.8839 26.3667H26.7254L25.2543 27.4497L25.8011 29.1995L24.323 28.1164L22.8237 29.1995L23.3987 27.4497L21.9241 26.3667H23.748L24.323 24.6239Z" fill="#FEFEFE"/>
<path fill-rule="evenodd" clip-rule="evenodd" d="M24.323 32.3462L24.8839 34.0925H26.7254L25.2543 35.172L25.8011 36.9147L24.323 35.8316L22.8237 36.9147L23.3987 35.172L21.9241 34.0925H23.748L24.323 32.3462Z" fill="#FEFEFE"/>
<path fill-rule="evenodd" clip-rule="evenodd" d="M29.7594 5.0976L30.345 6.85442H32.1688L30.6837 7.93393L31.2587 9.68018L29.7594 8.6042L28.2848 9.68018L28.8422 7.93393L27.3569 6.85442H29.1914L29.7594 5.0976Z" fill="#FEFEFE"/>
<path fill-rule="evenodd" clip-rule="evenodd" d="M29.7594 12.8305L30.345 14.5767H32.1688L30.6837 15.6527L31.2587 17.406L29.7594 16.323L28.2848 17.406L28.8422 15.6527L27.3569 14.5767H29.1914L29.7594 12.8305Z" fill="#FEFEFE"/>
<path fill-rule="evenodd" clip-rule="evenodd" d="M29.7594 20.5528L30.345 22.2955H32.1688L30.6837 23.375L31.2587 25.1318L29.7594 24.0488L28.2848 25.1318L28.8422 23.375L27.3569 22.2955H29.1914L29.7594 20.5528Z" fill="#FEFEFE"/>
<path fill-rule="evenodd" clip-rule="evenodd" d="M29.7594 28.2717L30.345 30.025H32.1688L30.6837 31.1045L31.2587 32.8507L29.7594 31.7712L28.2848 32.8507L28.8422 31.1045L27.3569 30.025H29.1914L29.7594 28.2717Z" fill="#FEFEFE"/>
<path fill-rule="evenodd" clip-rule="evenodd" d="M29.7594 35.9939L30.345 37.7543H32.1688L30.6837 38.8267L31.2587 40.5695L29.7594 39.4935L28.2848 40.5695L28.8422 38.8267L27.3569 37.7543H29.1914L29.7594 35.9939Z" fill="#FEFEFE"/>
</svg>
